<?xml version="1.0" encoding="UTF-8"?><svg id="_лой_1" xmlns="http://www.w3.org/2000/svg" viewBox="0 0 73.23 73.46"><defs><style>.cls-1{fill:#434674;}</style></defs><path class="cls-1" d="M24.59,47.45c1.16,.81,2.43,1.49,3.79,2.03l.25,.1-.2-.51-.09-.04c-.12-.05-.23-.09-.35-.14-1.57-.67-2.99-1.53-4.21-2.56-.41-.35-.8-.72-1.14-1.12l-.04-.05-.46,.06,.14,.16c.6,.72,1.34,1.38,2.32,2.06h0Z"/><polygon class="cls-1" points="36.63 21.21 36.63 21.21 36.63 21.21 36.63 21.21 36.63 21.21"/><path class="cls-1" d="M54.6,21.03s.02,0,.03,0c.01,0,.03,0,.04,0-.01,0-.02,.03-.03,.03-.01,0-.02-.02-.04-.03h0Z"/><path class="cls-1" d="M69.85,22.13s-.03-.03-.04-.05c-.35-.5-.71-.91-1.1-1.24-.42-.36-.82-.59-1.24-.71-.16-.05-.32-.12-.47-.18-.32-.12-.59-.26-.79-.49-.17-.2-.31-.36-.37-.55-.2-.63-.07-1.21,.37-1.63,.09-.08,.19-.16,.29-.23,.05-.04,.1-.07,.15-.11,.03-.02,.12-.07,.11-.19v-.05l-.04-.03s-.09-.05-.12-.05c-.06,0-.1,.03-.14,.06l-.1,.07c-.1,.07-.21,.14-.31,.23-.59,.52-.77,1.22-.52,2.05,.11,.35,.35,.59,.53,.74,.25,.21,.55,.38,.94,.54,.1,.04,.2,.07,.3,.11,.1,.03,.21,.07,.31,.11,.38,.15,.74,.41,1.14,.79,.27,.26,.53,.58,.81,.98,.03,.05,.09,.14,.21,.15h.12v-.25l-.06-.07h0Z"/><path class="cls-1" d="M34.09,6.67c-.3-.4-.67-.87-1.13-1.27-.24-.21-.54-.44-.9-.54-.49-.14-.92-.03-1.24,.32-.14,.15-.26,.33-.37,.5-.13,.21-.26,.4-.43,.55-.22,.19-.44,.29-.69,.29h-.04c-.25-.01-.5-.01-.76,0-.64,0-1.15,.2-1.56,.59-.23,.22-.47,.44-.72,.67-.12,.11-.25,.23-.39,.31-.3,.18-.61,.18-.92-.02-.12-.08-.23-.17-.34-.28-.12-.13-.24-.28-.33-.41-.2-.27-.37-.45-.57-.59-.33-.24-.69-.31-1.08-.22-.16,.03-.29,.1-.41,.17,.06-.15,.11-.3,.17-.44,.26-.66,.67-1.09,1.24-1.31,.43-.16,.88-.2,1.53-.1,.46,.07,.77,.07,1.09,.02,.54-.09,.97-.37,1.27-.83,.17-.26,.28-.54,.37-.81,.06-.18,.13-.38,.22-.55,.27-.53,.7-.94,1.31-1.24,.32-.16,.67-.28,1.12-.37,.02,0,.05-.01,.08-.03l.27-.1-.2-.13c-.06-.04-.1-.06-.15-.06h-.05c-.55,.11-1.04,.29-1.47,.55-.71,.43-1.19,1.04-1.42,1.83-.05,.15-.11,.31-.18,.47-.21,.44-.53,.74-.94,.88-.22,.08-.44,.12-.69,.12-.14,0-.3-.01-.45-.04-.52-.09-.96-.09-1.38-.02-.52,.1-.96,.34-1.31,.72-.25,.28-.44,.61-.57,1.02-.44,1.34-1.31,2.13-2.59,2.35-.56,.1-1.03,.28-1.44,.57-.58,.4-.92,.98-1.02,1.7-.06,.43-.03,.86,.01,1.26,.05,.55,.03,1.04-.08,1.5-.07,.31-.19,.62-.35,.93-.03,.04-.09,.13-.02,.24l.06,.09,.1-.05c.09-.05,.11-.07,.16-.16,.41-.77,.55-1.64,.44-2.66-.04-.33-.06-.69-.01-1.04,.07-.54,.28-.97,.62-1.31,.23-.23,.51-.41,.87-.55,.25-.1,.5-.15,.77-.21l.12-.03c.93-.2,1.67-.7,2.18-1.5,.04-.06,.08-.11,.12-.14l.06-.04c.13-.09,.26-.19,.39-.26,.4-.21,.77-.17,1.13,.11,.15,.12,.3,.27,.45,.49,.09,.12,.17,.24,.27,.35,.19,.23,.39,.39,.62,.5,.32,.16,.64,.17,.96,.03,.18-.08,.36-.2,.55-.38,.11-.1,.22-.21,.34-.31,.17-.15,.34-.31,.5-.46,.26-.24,.59-.38,1.01-.43,.28-.03,.59-.03,.89,0,.43,.04,.79-.1,1.11-.4,.15-.14,.29-.32,.45-.59,.06-.11,.13-.21,.2-.3,.07-.08,.17-.2,.29-.29,.22-.16,.48-.2,.76-.1,.36,.11,.65,.35,.86,.54,.3,.27,.6,.61,.95,1.06l.02,.03s.05,.07,.08,.1c.03,.03,.07,.04,.1,.05,0,0,.02,0,.04,.01l.25,.08-.13-.29s-.02-.06-.04-.09h0Z"/><path class="cls-1" d="M51.63,3.53c-.41-.11-.83-.13-1.42-.04-.43,.06-.85,.19-1.27,.33-.71,.23-1.42,.35-2.12,.36h-.05c-.24,0-.49-.01-.76-.03-.31-.03-.55-.08-.76-.17-.93-.39-1.54-1.03-1.87-1.97-.11-.31-.18-.64-.23-1.03-.01-.15-.11-.18-.19-.18h-.11v.11c-.02,.14,0,.27,.03,.4v.06c.04,.15,.07,.29,.11,.44,.04,.16,.09,.3,.14,.43,.05,.13,.11,.27,.18,.41,.02,.04,.05,.09,.07,.13-.29-.11-.59-.14-.9-.18-.27-.03-.53,.04-.74,.11-.51,.16-.97,.41-1.35,.63-.75,.44-1.4,.67-2.04,.74-.39,.04-.69,.03-.98-.03-.43-.09-.83-.31-1.21-.67-.26-.25-.5-.54-.72-.89-.27-.42-.6-.78-.98-1.05-.38-.28-.82-.49-1.32-.65-.3-.09-.62-.17-.99-.22-.05,0-.11,0-.16,0h-.06l-.11,.05v.21l.09,.03s.05,.02,.08,.02c.45,.07,.81,.15,1.14,.26,.93,.31,1.61,.83,2.07,1.59,.19,.31,.42,.6,.69,.86,.42,.41,.86,.67,1.34,.78,.47,.11,.98,.1,1.58-.03,.5-.11,1-.31,1.59-.64l.09-.05c.26-.14,.52-.29,.79-.41,.32-.15,.7-.3,1.11-.3,.11,0,.22,.01,.33,.03,.38,.08,.67,.17,.93,.29,.04,.02,.08,.05,.12,.09,.64,.71,1.43,1.1,2.35,1.15,.55,.03,1.09,.02,1.57-.05,.5-.07,.94-.18,1.34-.31,.46-.15,.95-.3,1.46-.35,.44-.04,.76-.02,1.06,.07,.45,.13,.78,.41,.99,.82,.07,.15,.14,.31,.18,.47,.09,.33,.17,.68,.09,1.06-.04,.17-.07,.34-.12,.51-.22,.79-.52,1.55-.81,2.28-.08,.2-.16,.39-.24,.59l-.15,.36s-.07,.15,.02,.28l.11,.15,.11-.21s.04-.07,.06-.11l.21-.51c.18-.45,.37-.9,.54-1.36,.24-.61,.42-1.14,.54-1.69,.05-.21,.09-.44,.09-.67,0-.33-.08-.67-.21-1.02-.25-.65-.69-1.07-1.32-1.25h0Z"/><path class="cls-1" d="M13.35,17.44c-.23,.12-.46,.19-.69,.21-.37,.04-.73-.02-1.13-.18-.05-.02-.08-.05-.11-.11l-.06-.11c-.1-.19-.2-.39-.33-.57-.45-.65-1.04-.98-1.74-.98h-.07c-.76,.02-1.35,.35-1.77,.99-.29,.45-.49,.97-.63,1.66-.02,.12-.05,.25-.07,.37-.04,.21-.07,.44-.13,.65-.19,.75-.56,1.34-1.09,1.77-.35,.28-.75,.49-1.18,.62-.14,.04-.29,.08-.43,.12-.08,.02-.17,.04-.25,.06-.04,.01-.07,.04-.1,.06l-.06,.07,.06,.18h.13s.08,0,.13-.02l.15-.04c.17-.04,.34-.08,.52-.14,1.26-.42,2.07-1.27,2.41-2.53,.06-.24,.11-.48,.15-.72,.02-.11,.04-.22,.06-.33,.11-.58,.27-1.03,.49-1.42,.35-.62,.83-.95,1.46-1.01,.5-.05,.92,.08,1.29,.39,.24,.2,.45,.46,.64,.83-.24-.09-.46-.14-.67-.15-.6-.05-1.17,.08-1.73,.39-.39,.22-.69,.53-.87,.94-.21,.45-.25,.93-.12,1.54,0,.04,.03,.07,.06,.11l.04,.07,.21-.05v-.13s0-.06,0-.09c0-.07-.01-.13-.02-.2-.01-.13-.03-.25-.03-.38,0-.5,.17-.93,.53-1.27,.41-.38,.93-.59,1.61-.63,.35-.02,.69,.05,1.08,.23,.43,.19,.77,.29,1.11,.34,.45,.06,.87-.03,1.3-.25,.03-.01,.05-.03,.08-.06l.15-.11-.11-.1c-.1-.09-.21-.05-.28-.01h0Z"/><path class="cls-1" d="M17.29,8.23c.03-.61-.15-1.18-.34-1.71,0-.02-.03-.07-.07-.09-.03-.01-.05-.02-.11-.03l-.2-.05,.13,.37c.04,.12,.08,.24,.12,.36,.13,.41,.19,.75,.18,1.07-.01,.54-.26,.9-.74,1.08-.35,.13-.72,.15-1.08,.15h-.22c-.12,0-.25,0-.39,.02-.56,.08-.96,.41-1.13,.95-.05,.14-.08,.31-.1,.51-.01,.12-.02,.24-.02,.36,0,.15-.01,.3-.03,.44-.1,.71-.44,1.19-1.04,1.46-.21,.09-.42,.14-.65,.19l-.1,.02c-1.19,.28-2.26,.77-3.18,1.46-.39,.29-.72,.6-1.02,.94-.03,.03-.12,.11-.06,.26l.06,.16,.17-.15s.05-.05,.07-.07c.05-.05,.09-.09,.14-.14,.09-.09,.17-.18,.26-.26,.92-.85,2.03-1.46,3.31-1.81,.12-.03,.24-.06,.37-.09,.14-.03,.25-.05,.48-.12,.91-.3,1.46-.99,1.52-2.01,0-.08,0-.16,.01-.23,0-.18,.02-.37,.04-.55,.07-.48,.3-.79,.67-.94,.13-.05,.27-.08,.44-.09,.07,0,.14,0,.21,0h.34s.08,0,.12,0c.38-.01,.68-.07,.96-.18,.53-.21,.86-.68,.89-1.29h0Z"/><path class="cls-1" d="M63.36,12.61c-.06,.07-.08,.09-.1,.17-.08,.39-.28,.68-.62,.88-.27,.16-.54,.25-.83,.28-.74,.09-1.29-.18-1.67-.83-.12-.21-.22-.44-.31-.77-.14-.5-.31-.89-.53-1.22-.22-.33-.48-.56-.8-.7-.2-.09-.42-.13-.68-.13-.16,0-.32,.02-.46,.03-.43,.05-.84,.24-1.24,.57-.47,.38-.9,.85-1.42,1.52-.02,.03-.03,.06-.04,.08l-.09,.2h.18c.14,0,.2-.09,.25-.16,.46-.59,.86-1.02,1.28-1.37,.45-.38,.94-.56,1.51-.56h.05c.42,0,.76,.17,1.04,.48,.18,.2,.33,.45,.44,.73,.09,.24,.18,.5,.25,.72,.12,.39,.26,.68,.43,.93,.27,.39,.62,.64,1.04,.75,.15,.04,.31,.06,.49,.06,.08,0,.16,0,.24,0,.45-.03,.86-.19,1.22-.46,.32-.24,.51-.57,.58-.99,0-.03,0-.07,0-.1l-.02-.34-.19,.22h0Z"/><path class="cls-1" d="M63.24,48.01c-.06-.04-.1-.06-.16-.06-.11,0-.16,.1-.19,.15l-.09,.17c-.05,.1-.11,.21-.16,.31-1.07,1.99-2.56,3.8-4.57,5.55-1.14,.99-2.4,1.91-3.86,2.8-.93,.57-1.96,1.11-3.13,1.65-.07,.03-.14,.06-.22,.1h-.01c-1.88-2.98-4.02-5.91-6.35-8.72,.16-.06,.33-.12,.5-.18,.42-.15,.85-.31,1.28-.48,.9-.37,1.79-.83,2.65-1.37,1.3-.81,2.32-1.67,3.12-2.63,.15-.18,.3-.38,.44-.57l.07-.09c.05-.06,.04-.16,.02-.22-.04-.09-.15-.09-.17-.09h-.06c-.06,.03-.09,.08-.12,.12-.86,1.22-2.05,2.27-3.74,3.3-1.25,.76-2.62,1.37-4.18,1.87-.02,0-.04,0-.05,0,0,0-.02,0-.05-.03l-.39-.46c-.5-.58-1.01-1.19-1.54-1.77-.75-.83-1.46-1.58-2.15-2.29-.41-.42-.83-.84-1.25-1.26-.11,.04-.24,.07-.37,.11,1.77,1.68,3.53,3.59,5.35,5.81l-.33,.09c-1.81,.48-3.75,.74-5.75,.77h-.16c-.1,0-.19,0-.29,0v-6.39c-.12,.03-.24,.06-.37,.08v6.3h-.02c-.23-.01-.47-.02-.7-.03-.58-.03-1.18-.05-1.77-.1-.39-.03-.79-.08-1.21-.14,.03,.14,.07,.27,.1,.4,.88,.12,1.8,.2,2.75,.23,.18,0,.35,0,.53,.01h.32v10.37h-.01c-.2,0-.41,0-.61,0-.48,0-.98-.02-1.47-.05-.87-.06-1.72-.14-2.54-.23-1.71-.2-3.45-.55-5.16-1.04-1.36-.39-2.71-.88-4.02-1.48-.13-.06-.26-.12-.4-.19l-.05-.02c1.28-1.87,2.62-3.66,3.98-5.3,.71-.86,1.41-1.67,2.11-2.44-.05-.13-.1-.26-.15-.38-2.23,2.44-4.34,5.12-6.27,7.96-.05-.02-.09-.05-.14-.07-1.5-.75-2.92-1.61-4.22-2.56-1.28-.94-2.37-1.88-3.33-2.87-1.52-1.56-2.66-3.21-3.5-5.03-.02-.04-.07-.16-.19-.16-.07,0-.12,.04-.16,.07l-.05,.03v.15l.03,.06s.02,.03,.03,.05c.35,.74,.71,1.4,1.1,2.02,.73,1.14,1.61,2.24,2.62,3.25,.92,.93,1.95,1.81,3.06,2.63,1.29,.96,2.69,1.82,4.16,2.57l.37,.18-.3,.46c-.23,.36-.47,.71-.69,1.07l-.05,.08c-.46,.74-.93,1.5-1.38,2.26-.17,.29-.33,.57-.5,.86l-.1,.17h.42l.03-.06c.09-.15,.17-.3,.26-.45,.75-1.32,1.56-2.58,2.18-3.53,.11-.18,.23-.35,.34-.52l.12-.18h.01c1.63,.79,3.37,1.43,5.32,1.94,1.48,.39,2.99,.68,4.48,.85,.88,.1,1.75,.18,2.58,.23,.48,.03,.97,.04,1.44,.05,.22,0,.43,0,.64,.02v6.93h.37v-6.94h.4c.1,0,.2,0,.3,0,.19,0,.37-.01,.56-.02,.56-.02,1.15-.04,1.72-.09,.86-.08,1.78-.19,2.82-.33,1.22-.17,2.45-.44,3.77-.81,1.39-.39,2.64-.82,3.83-1.33h0c1.04,1.68,1.95,3.24,2.77,4.79l.25,.47h.43l-.09-.17c-1-1.9-1.98-3.61-3.01-5.24,.16-.08,.33-.16,.49-.24,.43-.21,.88-.42,1.32-.65,1.31-.67,2.59-1.48,3.92-2.47,2.74-2.05,4.82-4.37,6.19-6.9l.29-.53v-.18l-.04-.03h0Zm-12.8,10.85c-.13,.05-.25,.11-.38,.16-1.28,.52-2.49,.92-3.7,1.22-.69,.17-1.46,.34-2.34,.52-.91,.18-1.85,.32-2.88,.42-1.23,.12-2.23,.18-3.16,.19-.22,0-.44,0-.68,.01v-10.37h0v-.11h0l.02,.11h.04c.93,0,1.87-.05,2.8-.16,.73-.08,1.4-.18,2.02-.3,.49-.1,.99-.23,1.46-.35l.46-.12s0,0,.02,.03c1.24,1.49,2.35,2.91,3.38,4.34,1.07,1.47,2.07,2.95,2.98,4.4l-.07,.03h0Z"/><path class="cls-1" d="M33.88,44.95c-.58,.53-1.16,1.07-1.73,1.63,.05,.13,.09,.25,.13,.37,.8-.79,1.54-1.49,2.25-2.13-.03,0-.06,.01-.09,.02l-.56,.11h0Z"/><path class="cls-1" d="M32.96,50.31l.1,.41h.08c.07,.02,.14,.03,.2,.03-.03-.13-.06-.26-.1-.4-.04,0-.07,0-.11-.01l-.17-.03h0Z"/><path class="cls-1" d="M28.91,50.46l.05-.05-.15-.38-.12,.14s-.05,.05-.07,.08c.05,.13,.1,.26,.15,.38,.05-.05,.1-.11,.14-.16h0Z"/><path class="cls-1" d="M18.78,45.08c-.13,0-.24,0-.32-.01-.04,0-.09-.04-.13-.08-.01-.01-.02-.02-.03-.03-.01-.01-.02-.02-.03-.03-.13,.04-.26,.08-.38,.12h0c.05,.11,.12,.2,.2,.27,0,0,.01,.01,.02,.02,.26-.08,.52-.16,.79-.24-.04,0-.08,0-.11,0h0Z"/><path class="cls-1" d="M18.1,45.32h0s-.02-.01-.02-.02c0,0,0,.01,.01,.02h0Z"/><path class="cls-1" d="M18.32,44.98s-.02-.02-.03-.03c.01,.01,.02,.02,.03,.03h0Z"/><polygon class="cls-1" points="17.87 45.03 17.88 45.04 17.88 45.03 17.87 45.03 17.87 45.03"/><path class="cls-1" d="M68.02,49.79c-1.68-.8-3.08-1.43-4.43-1.99-2.49-1.03-4.71-1.84-6.8-2.5-1.99-.63-3.65-1.09-5.23-1.45-.99-.23-1.99-.44-2.97-.64-.62-.13-1.25-.23-1.89-.34,.02,.26,.03,.45,.05,.53,.01,.05,.03,.08,.05,.12l.21,.03c.52,.09,1.03,.19,1.55,.29l.42,.08c1.14,.22,2.36,.5,3.84,.88,1.44,.37,2.98,.83,4.72,1.4,1.66,.55,3.44,1.2,5.43,2.02,1.29,.53,2.61,1.11,3.92,1.72l1.22,.58v-.69l-.08-.04h0Z"/><path class="cls-1" d="M26.17,42.88c-.31,.05-.61,.11-.92,.17l-.36,.37c.02,.11,.03,.22,.04,.32l.59-.12c.22-.04,.44-.08,.66-.12-.02-.21-.03-.42-.02-.62h0Z"/><path class="cls-1" d="M44.11,42.49c-.38-.05-.77-.09-1.15-.13-.54-.06-1.07-.11-1.61-.15-.15-.01-.3-.02-.45-.03-.14,.22-.28,.43-.44,.61,.35,.02,.7,.05,1.05,.08,.55,.04,.99,.08,1.39,.13,.43,.05,.87,.1,1.3,.16l-.03-.23c-.01-.09-.04-.25-.07-.43h0Z"/><path class="cls-1" d="M17.55,44.98c-.68,.22-1.37,.45-2.05,.69-1.36,.49-2.77,1.05-4.32,1.73-1.74,.76-3.32,1.52-4.82,2.33l-.08,.04v.72l.21-.11c1.76-.94,3.43-1.74,5.09-2.46,1.14-.49,2.64-1.12,4.21-1.68,.69-.24,1.4-.48,2.11-.71-.17-.14-.3-.33-.36-.55h0Z"/><path class="cls-1" d="M5.56,25.8c-.03,.22-.05,.52-.12,.81-.22,.9-.83,1.37-1.62,1.61-.06,.02-.15-.01-.2-.06-.07-.07,0-.15,.05-.21,.16-.2,.21-.44,.23-.7,.03-.3,.05-.61,.13-.9,.18-.66,.63-1.06,1.2-1.31,.18-.08,.25-.02,.28,.2,.02,.16,.03,.32,.05,.55h0Zm-.35-.4h0c-.06,.03-.12,.05-.18,.09-.39,.25-.67,.6-.77,1.08-.08,.39-.11,.79-.16,1.2,.9-.27,1.32-1.56,1.1-2.36h0Z"/><path class="cls-1" d="M68.17,23.46c0,.29-.08,.59-.22,.85-.03,.06-.11,.12-.17,.13-.09,.01-.11-.08-.12-.17-.03-.19-.14-.34-.26-.48-.29-.33-.47-.72-.42-1.19,.02-.18,.07-.37,.13-.54,.05-.15,.14-.18,.25-.09,.45,.37,.81,.8,.82,1.48h0Zm-.36,.36h0c.17-.55-.08-1.24-.5-1.43-.17,.47,.01,1.01,.5,1.43h0Z"/><path class="cls-1" d="M31.5,15.02c-.22-.02-.41,.06-.59,.17-.33,.2-.68,.32-1.07,.3-.43-.03-.8-.21-1.13-.5-.12-.1-.12-.18,0-.28,.93-.79,1.99-.98,2.94-.05,.02,.02,.04,.04,.06,.05,.06,.07,.14,.14,.09,.25-.05,.11-.14,.07-.22,.06h-.07Zm-2.46-.17h0s.02,.05,.04,.06c.34,.24,.72,.36,1.11,.25,.35-.1,.67-.28,1.02-.42-.42-.53-1.55-.53-2.18,.11h0Z"/><path class="cls-1" d="M52.02,12.7c-.02,.11,.05,.26-.08,.32-.14,.06-.18-.09-.25-.17-.13-.16-.31-.23-.49-.3-.2-.08-.41-.16-.59-.28-.52-.32-.79-.83-.87-1.47-.03-.26,.01-.32,.25-.29,.46,.06,.89,.21,1.27,.51,.53,.41,.72,1.01,.76,1.68h0Zm-1.97-1.86h0c0,.06,0,.12,0,.17,.12,.47,.37,.84,.78,1.06,.26,.14,.55,.24,.83,.35,.06-.74-.7-1.48-1.62-1.58h0Z"/><path class="cls-1" d="M20.85,13.45c-.23-.04-.46-.08-.69-.13-.08-.02-.17-.05-.17-.16,0-.1,.07-.13,.15-.16,.24-.09,.4-.28,.53-.51,.16-.28,.35-.53,.58-.74,.47-.42,1.02-.48,1.6-.43,.15,.01,.21,.11,.15,.26-.23,.59-.53,1.12-1.03,1.49-.34,.24-.7,.36-1.11,.37h0Zm1.8-1.82h0c-.43-.06-.81,.05-1.15,.3-.4,.29-.59,.75-.87,1.15,.84,.21,1.74-.53,2.02-1.45h0Z"/><polygon class="cls-1" points="5.07 46.06 5.69 47.89 5.36 48.01 4.87 46.55 2.36 47.4 2.23 47.03 5.07 46.06 5.07 46.06"/><path class="cls-1" d="M4.03,48.87c.37-.15,.69-.15,.95-.02,.22,.11,.38,.3,.48,.54,.11,.28,.11,.54,0,.79-.11,.25-.33,.43-.65,.56-.26,.1-.48,.14-.66,.13-.18-.02-.34-.09-.48-.2-.14-.12-.25-.26-.32-.44-.11-.28-.11-.55,0-.79,.11-.25,.34-.44,.68-.57h0Zm.14,.35c-.26,.1-.43,.24-.51,.4-.08,.16-.09,.33-.02,.5,.07,.17,.19,.29,.36,.35,.17,.06,.39,.04,.66-.06,.25-.1,.41-.23,.5-.39,.08-.16,.09-.33,.02-.5-.07-.17-.19-.29-.36-.35-.17-.06-.39-.04-.64,.06h0Z"/><path class="cls-1" d="M5.57,52.97l.12,.34c-.24,.08-.46,.08-.65,0s-.35-.23-.46-.44c-.14-.26-.16-.52-.07-.77,.09-.25,.3-.46,.62-.62,.21-.11,.41-.17,.6-.18,.19-.01,.36,.03,.51,.13,.15,.1,.27,.23,.35,.4,.11,.21,.14,.41,.11,.59-.04,.19-.14,.35-.32,.49l-.21-.29c.11-.1,.18-.2,.21-.31,.03-.11,.01-.22-.05-.33-.09-.17-.21-.27-.38-.31-.17-.04-.38,0-.64,.13-.26,.13-.42,.28-.49,.44-.07,.16-.06,.32,.02,.48,.07,.13,.16,.22,.28,.26,.12,.05,.27,.04,.45-.02h0Z"/><path class="cls-1" d="M4.74,54.83l.27-.21c.02,.08,.05,.15,.08,.2,.04,.07,.09,.12,.13,.15,.05,.03,.1,.05,.16,.05,.04,0,.14-.01,.29-.04,.02,0,.05,0,.09-.02l1.47-1.8,.2,.34-.86,1.02c-.11,.13-.23,.26-.36,.39,.16-.05,.33-.08,.5-.11l1.33-.23,.18,.32-2.32,.4c-.25,.04-.43,.07-.53,.07-.14,0-.25-.02-.34-.06-.09-.05-.17-.12-.22-.22-.04-.06-.06-.14-.08-.23h0Z"/><path class="cls-1" d="M8.74,55.55l.88,1.23-1.52,1.09,.14,.19-.74,.53-.18-.25,.5-.36-1-1.39-.5,.36-.18-.24,.75-.53,.11,.16c.44,0,1.02-.26,1.74-.79h0Zm-.07,.43c-.59,.39-1.08,.6-1.46,.64l.68,.95,1.27-.91-.49-.68h0Z"/><path class="cls-1" d="M9.72,59.92c-.18-.03-.32-.07-.44-.13-.12-.06-.23-.15-.32-.26-.16-.18-.23-.36-.23-.53,0-.17,.07-.32,.21-.44,.08-.07,.17-.11,.27-.14,.1-.02,.19-.02,.28,0,.09,.02,.18,.06,.26,.12,.06,.04,.15,.11,.26,.21,.22,.2,.4,.34,.53,.41,.04-.03,.06-.05,.07-.06,.11-.1,.17-.19,.17-.29,0-.13-.06-.26-.18-.4-.11-.13-.22-.21-.32-.23-.1-.02-.22,0-.36,.07l-.2-.3c.14-.08,.27-.12,.39-.12,.12,0,.25,.03,.38,.1,.13,.07,.26,.18,.38,.32,.12,.14,.21,.27,.25,.38,.04,.12,.06,.22,.04,.3-.01,.08-.05,.17-.11,.25-.04,.05-.12,.13-.24,.24l-.37,.32c-.26,.22-.41,.37-.47,.44-.06,.07-.1,.15-.14,.24l-.25-.29c.03-.08,.09-.16,.16-.23h0Zm.6-.56c-.13-.07-.3-.19-.5-.36-.12-.1-.21-.17-.27-.2-.06-.03-.12-.04-.18-.03-.06,0-.12,.03-.17,.08-.07,.06-.11,.15-.11,.24s.05,.2,.14,.31c.09,.11,.2,.18,.32,.22,.12,.04,.24,.05,.35,.02,.09-.03,.19-.09,.31-.2l.1-.09h0Z"/><path class="cls-1" d="M9.91,61.78l2.17-2.08,.23,.24-.21,.2c.13-.02,.26-.01,.36,.02,.11,.03,.21,.1,.31,.2,.13,.13,.21,.28,.24,.45,.03,.17,0,.34-.07,.51-.08,.17-.19,.33-.34,.47-.16,.15-.33,.26-.51,.33-.18,.07-.36,.08-.53,.03-.17-.04-.32-.13-.43-.25-.08-.09-.14-.19-.17-.29-.03-.11-.04-.21-.03-.31l-.76,.73-.25-.27h0Zm1.61-1.08c-.2,.19-.31,.38-.33,.55-.02,.17,.03,.32,.14,.43,.11,.12,.26,.17,.44,.16,.18-.01,.37-.12,.58-.32,.2-.19,.31-.37,.33-.55,.02-.18-.02-.32-.13-.44-.11-.11-.26-.16-.44-.15-.19,.01-.38,.12-.58,.31h0Z"/><path class="cls-1" d="M14.17,63.57l.24,.27c-.19,.16-.39,.24-.61,.24-.21,0-.41-.08-.59-.23-.23-.19-.34-.42-.35-.69-.01-.26,.1-.53,.34-.81,.15-.18,.32-.31,.49-.39,.17-.08,.35-.11,.53-.07,.18,.04,.34,.11,.48,.24,.18,.15,.29,.32,.32,.51,.04,.19,0,.38-.11,.57l-.3-.19c.07-.13,.09-.26,.08-.37-.02-.11-.07-.21-.17-.29-.14-.12-.3-.17-.47-.14-.17,.03-.36,.15-.54,.36-.19,.22-.29,.42-.29,.59,0,.17,.07,.32,.2,.44,.11,.09,.23,.14,.36,.14,.13,0,.27-.07,.4-.19h0Z"/><polygon class="cls-1" points="15.82 63.13 17.2 64.21 17.01 64.45 16.46 64.02 15.32 65.49 15.03 65.27 16.17 63.8 15.63 63.37 15.82 63.13 15.82 63.13"/><path class="cls-1" d="M17.81,64.61l.71,.46c.17,.11,.3,.21,.36,.29,.07,.08,.11,.18,.12,.3,.01,.12-.02,.23-.09,.34-.06,.09-.12,.15-.2,.19-.08,.04-.17,.06-.27,.06,.07,.08,.1,.18,.11,.3,0,.11-.03,.23-.09,.33-.12,.17-.27,.26-.43,.27-.17,.01-.36-.05-.57-.19l-.82-.53,1.17-1.83h0Zm-.18,.97l.33,.21c.13,.08,.23,.13,.28,.15,.06,.02,.12,.02,.19,0,.07-.02,.12-.06,.15-.11,.06-.1,.07-.19,.03-.27-.04-.08-.15-.18-.31-.28l-.34-.22-.33,.52h0Zm-.51,.8l.41,.26c.18,.11,.31,.17,.4,.17,.09,0,.17-.05,.24-.15,.04-.06,.05-.12,.05-.2,0-.07-.03-.14-.09-.19-.05-.05-.15-.12-.28-.21l-.37-.24-.35,.55h0Z"/><path class="cls-1" d="M20.62,68.01l.31,.23c-.16,.16-.34,.26-.54,.28-.2,.03-.41-.02-.63-.15-.28-.16-.44-.37-.51-.63-.07-.26,0-.55,.17-.85,.18-.32,.4-.52,.66-.6,.26-.08,.52-.05,.78,.1,.25,.14,.41,.35,.47,.61,.06,.26,0,.55-.17,.86-.01,.02-.03,.05-.05,.08l-1.4-.8c-.11,.21-.14,.4-.1,.57,.04,.17,.14,.3,.3,.39,.12,.07,.23,.09,.35,.08,.12-.01,.24-.08,.37-.18h0Zm-.75-1.11l1.05,.6c.08-.17,.1-.31,.08-.43-.03-.18-.13-.32-.29-.41-.15-.08-.3-.11-.45-.06-.15,.04-.29,.14-.39,.3h0Z"/><polygon class="cls-1" points="22.45 67.25 22.79 67.4 22.42 68.23 23.35 68.64 23.72 67.82 24.06 67.97 23.17 69.95 22.83 69.8 23.22 68.92 22.29 68.5 21.9 69.38 21.56 69.23 22.45 67.25 22.45 67.25"/><polygon class="cls-1" points="24.91 68.32 25.26 68.43 24.97 69.29 25.94 69.62 26.23 68.76 26.58 68.88 25.88 70.93 25.54 70.82 25.84 69.9 24.87 69.58 24.57 70.49 24.22 70.37 24.91 68.32 24.91 68.32"/><path class="cls-1" d="M29.45,69.66l.36,.08-.48,2.12-.36-.08,.48-2.12h0Zm-2-.46l.36,.08-.19,.83,.45,.1c.3,.07,.51,.18,.64,.33,.13,.15,.18,.33,.13,.53-.04,.18-.14,.31-.3,.41-.16,.1-.39,.11-.68,.04l-.89-.21,.49-2.12h0Zm-.06,1.91l.38,.09c.23,.05,.4,.06,.5,.03,.11-.03,.18-.11,.2-.23,.02-.09,0-.18-.05-.27-.06-.09-.21-.16-.45-.22l-.42-.1-.16,.7h0Z"/><path class="cls-1" d="M30.84,69.95l.36,.06-.29,1.63,1.3-1.45,.39,.07-.38,2.14-.36-.06,.29-1.62-1.29,1.44-.39-.07,.38-2.14h0Zm1.39-.57l.25,.04c-.05,.17-.13,.29-.25,.36-.12,.07-.26,.09-.43,.06-.17-.03-.3-.1-.39-.21-.09-.11-.13-.25-.11-.42l.25,.04c0,.1,.03,.17,.08,.23,.05,.06,.12,.09,.21,.11,.11,.02,.2,.01,.26-.02,.06-.03,.11-.1,.15-.19h0Z"/><path class="cls-1" d="M33.85,73.39l-.02-.34c.08,.03,.15,.04,.21,.05,.08,0,.15,0,.2-.03,.05-.02,.09-.06,.13-.1,.03-.03,.07-.12,.13-.27,0-.02,.02-.05,.04-.09l-.66-2.23,.39,.03,.36,1.28c.05,.16,.09,.33,.12,.51,.05-.16,.12-.32,.19-.48l.56-1.23,.37,.03-.98,2.14c-.11,.23-.19,.39-.24,.47-.07,.11-.16,.2-.24,.25-.09,.05-.19,.07-.31,.06-.07,0-.15-.03-.23-.06h0Z"/><polygon class="cls-1" points="36.54 70.56 36.91 70.55 36.93 71.45 37.95 71.42 37.93 70.52 38.3 70.51 38.35 72.68 37.98 72.69 37.96 71.73 36.94 71.76 36.96 72.72 36.59 72.73 36.54 70.56 36.54 70.56"/><polygon class="cls-1" points="39.32 70.47 39.69 70.44 39.81 72.09 40.71 70.36 41.1 70.33 41.26 72.5 40.9 72.53 40.77 70.89 39.88 72.6 39.48 72.63 39.32 70.47 39.32 70.47"/><path class="cls-1" d="M42.01,70.22l.83-.15c.2-.04,.36-.05,.47-.03,.11,.02,.2,.06,.29,.14,.09,.08,.14,.18,.17,.31,.02,.1,.01,.2-.02,.28-.03,.08-.08,.16-.16,.22,.11,.02,.2,.06,.28,.14,.08,.08,.13,.18,.16,.31,.02,.2-.02,.37-.14,.49-.11,.12-.3,.2-.55,.25l-.96,.17-.38-2.14h0Zm.52,.84l.38-.07c.15-.03,.26-.05,.31-.08,.05-.03,.1-.07,.14-.13,.04-.06,.05-.12,.04-.19-.02-.11-.07-.18-.16-.22-.09-.03-.23-.03-.42,0l-.4,.07,.11,.6h0Zm.17,.94l.48-.08c.2-.04,.34-.09,.41-.15,.07-.06,.09-.15,.08-.27-.01-.07-.05-.13-.1-.18-.05-.05-.12-.08-.19-.08-.07,0-.19,0-.35,.04l-.44,.08,.11,.64h0Z"/><path class="cls-1" d="M46.38,70.82l.38-.04c0,.23-.08,.42-.21,.57-.13,.15-.32,.26-.56,.32-.31,.07-.57,.03-.8-.12-.22-.15-.38-.39-.45-.73-.08-.35-.05-.65,.08-.89,.14-.24,.35-.39,.64-.46,.28-.06,.53-.02,.76,.13,.22,.15,.37,.4,.45,.75,0,.02,.01,.05,.02,.09l-1.58,.36c.07,.23,.17,.39,.32,.49,.15,.1,.31,.12,.48,.08,.13-.03,.24-.09,.31-.18,.08-.09,.13-.22,.14-.38h0Zm-1.31-.3l1.18-.27c-.06-.17-.13-.3-.23-.37-.15-.11-.31-.15-.49-.11-.16,.04-.29,.12-.38,.26-.09,.13-.11,.3-.08,.48h0Z"/><path class="cls-1" d="M48.18,71.91l-.96-2.85,.32-.11,.09,.27c.04-.13,.1-.24,.17-.32,.08-.08,.18-.15,.32-.19,.18-.06,.35-.07,.51-.02,.16,.04,.31,.14,.43,.28,.12,.14,.22,.31,.28,.51,.07,.21,.1,.41,.08,.61-.02,.19-.09,.36-.2,.5-.11,.14-.25,.23-.41,.29-.12,.04-.23,.05-.34,.03-.11-.02-.2-.05-.29-.11l.34,1-.35,.12h0Zm-.29-1.91c.09,.26,.21,.44,.36,.53,.15,.09,.3,.11,.45,.06,.15-.05,.26-.16,.33-.33,.07-.17,.05-.39-.04-.66-.09-.26-.21-.44-.36-.53-.15-.09-.3-.12-.45-.07-.15,.05-.26,.16-.32,.34-.07,.18-.06,.4,.03,.66h0Z"/><path class="cls-1" d="M51.68,68.89l.35-.08c.05,.25,.03,.46-.07,.65-.1,.19-.26,.33-.48,.41-.28,.11-.53,.1-.77-.01-.24-.11-.42-.34-.56-.68-.09-.22-.12-.42-.12-.61,0-.19,.07-.36,.19-.5,.11-.14,.26-.24,.43-.31,.22-.09,.42-.1,.6-.04s.33,.18,.45,.37l-.31,.18c-.09-.12-.18-.2-.29-.24-.11-.04-.22-.03-.33,.01-.17,.07-.29,.18-.35,.35-.06,.17-.04,.38,.07,.65,.11,.27,.24,.45,.39,.53,.15,.08,.31,.09,.48,.02,.13-.05,.23-.14,.29-.26,.06-.12,.07-.27,.02-.45h0Z"/><polygon class="cls-1" points="52.12 67.15 52.45 66.98 53.2 68.46 53.36 66.52 53.71 66.34 54.7 68.28 54.37 68.44 53.62 66.98 53.46 68.91 53.1 69.09 52.12 67.15 52.12 67.15"/><polygon class="cls-1" points="54.36 66 55.84 65.06 56 65.32 55.42 65.69 56.42 67.26 56.11 67.46 55.11 65.89 54.52 66.26 54.36 66 54.36 66"/><path class="cls-1" d="M58.55,64.98l.34-.18c.08,.21,.09,.42,.03,.61-.06,.19-.2,.36-.4,.51-.26,.18-.52,.25-.78,.19-.26-.05-.5-.22-.7-.51-.21-.3-.3-.58-.26-.85,.04-.27,.18-.5,.42-.67,.24-.17,.49-.22,.75-.17,.26,.05,.5,.23,.71,.52,.01,.02,.03,.04,.05,.08l-1.32,.93c.15,.19,.31,.3,.48,.33,.17,.03,.33,0,.48-.11,.11-.08,.18-.17,.22-.29,.04-.11,.03-.25-.01-.41h0Zm-1.32,.21l.99-.7c-.12-.14-.24-.22-.35-.26-.18-.05-.34-.02-.49,.09-.14,.1-.22,.22-.25,.38-.03,.16,0,.32,.11,.48h0Z"/><polygon class="cls-1" points="58.43 63.26 59.76 62.12 59.96 62.35 59.44 62.8 60.65 64.21 60.37 64.45 59.16 63.04 58.63 63.49 58.43 63.26 58.43 63.26"/><path class="cls-1" d="M61.86,61.68l1.03,.31-.22,.2-1.12-.22-.16-1.13,.22-.21,.25,1.04h0Zm.57-.54l1.04,.3-.22,.21-1.11-.23-.17-1.12,.22-.21,.25,1.05h0Z"/><path class="cls-1" d="M62.29,58.47l1.2-1.38,1.99,1.74,.18-.2,.79,.69-.23,.26-.53-.46-1.3,1.49,.53,.46-.23,.27-.79-.69,.15-.17c-.11-.42-.59-1-1.42-1.72l-.33-.29h0Zm1.2-.85l-.69,.79,.12,.1c.19,.17,.44,.41,.74,.74,.3,.32,.52,.63,.65,.92l.91-1.04-1.73-1.51h0Z"/><path class="cls-1" d="M67.23,58.46l-.3-.16c.06-.05,.11-.1,.15-.15,.05-.07,.07-.13,.08-.18,0-.06,0-.11-.02-.16-.02-.04-.07-.12-.16-.25-.01-.02-.03-.04-.05-.08l-2.25-.6,.23-.32,1.28,.36c.16,.04,.33,.1,.5,.16-.11-.13-.21-.27-.31-.41l-.76-1.11,.21-.3,1.32,1.95c.14,.21,.24,.36,.28,.45,.06,.12,.09,.24,.08,.34,0,.1-.04,.2-.11,.3-.04,.06-.1,.11-.17,.17h0Z"/><path class="cls-1" d="M66.26,52.83l.17-.28c.12,.09,.19,.17,.22,.24,.03,.07,.02,.14,0,.22-.03,.08-.09,.21-.21,.41-.15,.26-.23,.46-.23,.58,0,.12,.04,.24,.12,.35,.09,.11,.22,.21,.39,.32-.07-.15-.11-.3-.11-.44,0-.14,.04-.28,.12-.41,.14-.25,.34-.4,.61-.47,.26-.06,.54-.01,.83,.16,.22,.13,.38,.27,.47,.43,.09,.16,.15,.32,.16,.48,.01,.15-.04,.33-.15,.52-.13,.22-.28,.37-.45,.43-.17,.06-.36,.08-.56,.06-.2-.03-.49-.15-.89-.38-.5-.29-.78-.56-.86-.83-.07-.27-.01-.57,.19-.92,.13-.22,.19-.34,.2-.38,0-.03,0-.06-.02-.09h0Zm1.7,1c-.2-.11-.38-.16-.56-.14-.18,.02-.32,.11-.41,.28-.1,.17-.11,.35-.04,.52,.08,.17,.22,.32,.44,.45,.22,.13,.41,.17,.59,.13,.18-.04,.31-.13,.4-.29,.09-.16,.1-.32,.02-.5-.08-.18-.22-.33-.44-.45h0Z"/><polygon class="cls-1" points="67.66 52.15 67.83 51.82 68.63 52.24 69.1 51.33 68.29 50.91 68.46 50.59 70.39 51.58 70.22 51.91 69.37 51.47 68.9 52.38 69.76 52.82 69.59 53.14 67.66 52.15 67.66 52.15"/><path class="cls-1" d="M71.1,49.12c.06,.17,.09,.32,.08,.46,0,.13-.03,.27-.08,.4-.09,.22-.21,.37-.36,.45-.15,.08-.32,.08-.48,.02-.1-.04-.18-.1-.24-.17-.06-.08-.11-.16-.13-.25-.02-.09-.03-.19-.01-.29,0-.07,.03-.18,.07-.33,.08-.29,.12-.51,.13-.66-.05-.02-.08-.03-.09-.04-.14-.05-.25-.06-.33-.02-.11,.06-.2,.17-.27,.34-.06,.16-.08,.29-.06,.39,.03,.1,.1,.2,.23,.29l-.18,.32c-.13-.09-.23-.18-.29-.29-.06-.11-.09-.23-.08-.38,0-.15,.04-.31,.11-.49,.07-.17,.14-.3,.23-.4,.08-.09,.17-.15,.25-.18,.08-.03,.17-.03,.28-.01,.06,.01,.17,.05,.32,.11l.45,.18c.32,.13,.52,.2,.61,.22,.09,.02,.18,.02,.28,.01l-.14,.36c-.09,0-.18,0-.28-.03h0Zm-.77-.27c0,.14-.03,.35-.09,.61-.04,.15-.05,.26-.05,.33,0,.07,.02,.13,.06,.18,.04,.05,.08,.09,.14,.11,.09,.04,.18,.03,.27-.01s.16-.13,.21-.27c.05-.13,.07-.26,.05-.39-.02-.13-.07-.23-.15-.32-.06-.07-.17-.13-.32-.19l-.12-.05h0Z"/><path class="cls-1" d="M71.22,46.24l-1.04,.26,.08-.29,1.08-.38,.71,.89-.08,.29-.75-.77h0Zm-.22,.76l-1.04,.27,.09-.3,1.07-.36,.72,.88-.08,.3-.75-.78h0Z"/><path class="cls-1" d="M73.17,32.34c-.01-.07-.03-.14-.04-.21-.77-4.67-2.19-8.85-4.23-12.41-1.18-2.07-2.23-3.76-3.52-5.28-.13-.16-.25-.31-.37-.46-.19-.25-.37-.48-.61-.73l-1.05-1.2c-1.43-1.51-2.85-2.98-4.48-4.27-.86-.68-1.6-1.26-2.51-1.87-.15-.1-.3-.2-.44-.3-.28-.19-.54-.37-.85-.56l-.07-.05c-.21-.13-.38-.24-.6-.36-2.44-1.38-4.58-2.33-6.73-3l-3.44-.89c-1.21-.26-2.46-.52-3.74-.59-.29-.01-.57-.05-.85-.08-.31-.03-.63-.07-.95-.08h-1.1c-5.76,.04-10.14,.54-15.46,2.97l-1.45,.69c-.33,.15-.61,.31-.91,.47-.16,.09-.32,.18-.5,.27-2.13,1.12-5.92,4-7.51,5.69-.24,.26-.5,.51-.75,.76-.46,.46-.94,.94-1.36,1.46l-1.01,1.15c-.13,.14-.21,.25-.3,.36-.06,.07-.11,.14-.19,.24C4.63,18.27,1.85,24.02,.56,29.85c-.18,.79-.73,3.4-.5,3.9l.04,.09,.1-.03c.38-.11,.76-.78,1.08-1.41l.07-.13c.33-.62,.6-1.17,.88-1.78,.57-1.22,.68-2.27,.77-3.2,.16-1.53,.28-2.75,2.36-4.03,.96-.6,1.52-1.53,2.01-2.35,.47-.8,.85-1.43,1.41-1.43,.12,0,.24,.03,.38,.08,.14,.06,.22,.14,.26,.27,.12,.37-.15,.99-.42,1.41-.43,.68-.85,1.46-.65,2.1,.09,.3,.31,.52,.66,.67,.15,.07,.3,.1,.44,.1,.7,0,.9-.88,1.07-1.59,.06-.27,.12-.52,.2-.69,.3-.7,.82-.77,1.63-.8,.56-.02,.97-.19,1.22-.5,.42-.52,.28-1.31,.21-1.73-.01-.08-.03-.15-.03-.21-.07-.68-.11-1.64,.36-2.09,.19-.18,.42-.27,.71-.27,.65,0,1.43,.47,1.9,.86,1.35,1.15,2.94,1.69,5,1.69,1.01,0,2.01-.12,2.98-.24,.9-.11,1.76-.22,2.55-.22h.04c2.47,0,4.53,.2,6.51,1.08,.59,.26,1.16,.61,1.72,1.01h0c.06-.02,.12-.05,.19-.05,.06,0,.12,0,.18,0-.04-.09-.07-.19-.1-.28-.02-.07-.03-.14-.02-.21-.24-.18-.49-.36-.75-.51-.05-.03-.08-.05-.12-.08-.09-.06-.18-.12-.32-.19-.41-.19-1.38-.63-2.37-.92,.99,.14,1.89,.43,2.94,.83,.29,.11,.58,.27,.86,.43,.02,.01,.05,.03,.07,.04,.05-.02,.11-.04,.17-.04h.09l.04,.02c.07,.02,.14,.03,.21,.03,.15,0,.29-.07,.46-.15h0c-.13-.08-.27-.16-.45-.27-.21-.13-.34-.19-.57-.28l-.06-.03c-.15-.06-.24-.11-.33-.16-.08-.04-.16-.08-.28-.14-.46-.21-.87-.35-1.43-.5-1.34-.35-2.62-.52-3.91-.52-.82,0-1.64,.07-2.53,.2-.66,.1-1,.12-1.33,.14-.24,.01-.49,.03-.86,.08-.21,.03-.35,.05-.45,.08-.26,.05-.25,.08-.81-.13-1.1-.41-1.96-1.19-2.56-2.33-.07-.14-.13-.27-.2-.4l-.08-.17c-.06-.13-.09-.23-.12-.34-.01-.04-.03-.09-.04-.13,1.65-.02,2.16-.43,2.56-1.93l.02-.09c.05-.21,.06-.23,.2-.38,.13-.14,.29-.2,.48-.2,.33,0,.73,.18,1.15,.38,.51,.24,1.04,.48,1.59,.48,.61,0,1.12-.32,1.54-.98,.09-.13,.17-.33,.26-.53,.19-.43,.42-.97,.7-.97,.15,0,.34,.15,.54,.44,.97,1.38,3.08,1.47,4.78,1.55,.67,.03,1.3,.06,1.74,.17,1.84,.44,2.83,1.47,4.01,2.87,.24,.28,.91,1.22,.93,1.37v1.65h0c.22,.07,.44,.21,.63,.41h0c0-.62,.01-1.33-.02-1.99l-.13-1.78c-.02-.18-.02-.36-.02-.54,0-.13,0-.25,0-.38,0-.16-.02-.26-.04-.37-.02-.13-.04-.26-.04-.5-.02-1.33-.21-2.21-.34-2.79-.03-.16-.06-.3-.09-.42,.53,.24,1.1,.3,1.85,.31,.04,.44,.13,.99,.21,1.48,.02,.15,.05,.29,.07,.42,.05,.31,.1,.65,.15,1.01,.4,2.62,1,6.57,2.03,8.32,.72,1.21,1.52,1.8,2.45,1.8,1.1,0,2.24-.83,3.32-1.68,.29-.23,.56-.42,.83-.62,.14-.1,.29-.21,.45-.32,2.44-1.78,4.85-3.39,7.62-3.42,.02,.06,.03,.11,.05,.16,.03,.1,.06,.18,.07,.33-.76,.1-2.61,.91-3.11,1.17-.81,.41-3.54,1.83-4.74,2.88-1.21,1.06-2.13,2.02-2.73,2.87-.07,.1-.15,.21-.22,.31-.24,.33-.46,.64-.66,1-1.69,2.97-2.34,5.39-2.8,8.4v.03c.12,.49,.24,1,.28,1.51,.02,0,.03,.02,.05,.03,.27-2.88,.96-5.61,1.94-7.69,1.24-2.63,2.64-4.53,4.26-5.82l.32-.25c-.72,.77-1.32,1.53-1.84,2.32-1.7,2.6-2.26,4.9-2.64,8-.42,3.42-.1,7.03,1.01,11.34l.03,.11,.11-.03c.1-.03,.2-.05,.3-.07l.12-.02-.03-.12c-.16-.62-.3-1.22-.43-1.8-.78-3.65-.89-7.48-.32-11.08,.62-3.9,1.99-5.94,4.66-8.79,1.53-1.64,4.07-3.09,6.5-3.72,0,1.75,.14,2.96,1.46,3.71,.44,.25,.7,.26,1.18,.29l.25,.02c.87,.06,1.38,.71,1.4,1.79,.01,.72,.04,.99,.47,1.38,.34,.31,.8,.45,1.22,.54,.32,.07,.63,.11,.93,.14,1.18,.13,2.11,.23,2.74,2.78l.02,.09c.35,1.42,.88,3.57,2.39,4.05,.1,.03,.18,.05,.25,.05,.11,0,.19-.04,.24-.1,.12-.15,.07-.4,.01-.68h0ZM23.15,18.12l-1.45,.06c-1.18,0-2.33-.23-3.42-.69-.43-.18-.73-.43-1.08-.71l-1.28-.93c.3-.2,.63-.64,.75-.91,.11,.03,.2,.07,.29,.11,.22,.09,.43,.18,.91,.18s.67-.16,.89-.33c.27-.21,.57-.45,1.57-.46,.35,1.43,1.42,2.83,2.81,3.67h0Zm18.08-2.91c-1.16-1.44-2.26-2.8-4.42-3.36-.71-.18-1.48-.21-2.23-.24-.55-.02-1.11-.04-1.65-.12-.98-.14-2.55-.69-2.55-1.53,0-.59,.57-1.11,.97-1.24,.2-.07,.42-.08,.61-.08,.07,0,.14,0,.22,0,.41,0,.84,.02,1.18-.24,.37-.28,.5-.66,.65-1.05,.06-.16,.12-.33,.2-.5,.24-.51,.82-.82,1.51-.82,.53,0,1.08,.19,1.52,.52l.59,.56c.24,.24,.43,.45,.61,.65,.46,.51,.86,.95,1.76,1.56,.13,.09,.24,.15,.32,.2,.27,.15,.3,.17,.45,.78,.13,.57,.2,1.11,.22,1.73,.01,.43,.05,.9,.1,1.41,.05,.61,.11,1.28,.13,1.99-.06-.07-.12-.14-.17-.22h0Zm5.58,6.72c-1.04-1.09-1.49-3.42-1.71-4.53-.14-.72-1.13-6.09-1.2-7.17l.45-.05c.1,1.2,.32,2.58,.5,3.72,.15,.95,.93,5.77,1.65,7.04,.48,.83,.97,1.29,1.69,1.58l.29,.09c-.58,.07-.94,.09-1.67-.68h0Zm-1.86-11.88c.71-.22,1.7-.95,2.43-1.5,.11-.08,.22-.16,.31-.23,.36-.27,.7-.4,1.03-.4,.37,0,.66,.17,.9,.31,.07,.04,.14,.08,.2,.11-.11,.11-.27,.25-.46,.41-1.09,.92-3.28,2.76-3.56,7.08-.02-.1-.04-.21-.06-.31-.03-.14-.06-.27-.08-.38-.16-.86-.67-4.1-.7-5.1h0Zm10.66,8.09c-.68,.36-1.88,1.15-3.58,2.35-.09,.06-.29,.22-.54,.42-.5,.39-1.55,1.21-1.7,1.25-1.02,0-1.83-.32-2.39-.95-.97-1.08-1.27-3.06-.93-6.05,.24-2.11,1-3.72,2.45-5.25,.11-.11,.14-.14,.22-.2l1.12-.95c.47,.3,.81,.88,1.16,1.5,.58,1.01,1.24,2.15,2.66,2.41,.13,.02,.26,.03,.38,.04,.63,.05,1.09,.09,1.28,2.04,.18,1.77,.89,2.48,2.26,2.29-.69,.21-1.17,.46-2.39,1.1h0Zm15.69,12.33c-.15-.41-.26-.85-.36-1.27-.14-.55-.28-1.12-.5-1.64-.43-.99-1.03-1.59-1.87-1.89-.28-.1-.66-.13-1.07-.16-.68-.05-1.45-.1-1.8-.53-.16-.19-.18-.53-.21-.92-.05-.6-.1-1.34-.7-1.87-.35-.31-.81-.48-1.4-.52-1.76-.13-2.12-1.28-2.14-3.23-.01-1.47-.66-2.32-1.76-2.32-.29,0-.6,.06-.93,.17-.27,.09-.56,.14-.81,.14-.41,0-1.12-.13-1.34-1-.05-.22-.08-.51-.11-.81-.1-.96-.22-2.16-1.17-2.44-.22-.07-.44-.09-.66-.11-.65-.06-1.32-.12-2.13-1.35l-.05-.07c-.14-.21-.23-.35-.33-.61-.36-.94-1.83-2.66-2.99-2.66-1.06,0-1.46,.32-2.02,.76-.19,.15-.41,.33-.69,.51-1.39,.92-1.7,.95-3.29,.95h-.23c-1.12,0-2.71-.96-3.54-1.85l-1-1.1c-.07-.06-.12-.11-.16-.15-.06-.05-.11-.1-.19-.18-.56-.57-1.3-.9-2.03-.9s-1.38,.3-1.89,.86c-.22,.24-.33,.55-.44,.86-.12,.33-.23,.63-.45,.78-.23,.15-.53,.15-.88,.16-.59,0-1.32,.02-1.95,.8-.21,.26-.34,.54-.4,.83-.14-.06-.27-.09-.4-.09-.5,0-.73,.5-.97,1.03-.31,.67-.66,1.43-1.61,1.43-.49,0-.81-.17-1.16-.35-.4-.21-.86-.44-1.62-.44-.82,0-1.04,.93-1.15,1.38-.28,1.18-1.19,1.19-2.24,1.21-.66,0-1.34,.02-1.88,.34-.09,.06-.17,.11-.24,.15-.36,.22-.41,.26-.95,.26-.25,0-.42-.08-.59-.16-.15-.07-.32-.14-.52-.16h-.1l-.02,.09c-.08,.31-.64,.97-.96,1.18-.07,.05-.13,.07-.16,.07-.02,0-.03,0-.07-.02-.06-.02-.14-.05-.28-.05-1.14,0-1.77,.89-1.77,2.5,0,.26,.04,.53,.08,.79,.07,.52,.15,1.02-.09,1.29-.15,.18-.43,.26-.84,.26-1.33,0-2.07,.61-2.27,1.86-.19,1.17-.55,1.26-.65,1.26-.1,0-.2-.06-.28-.17-.08-.11-.13-.25-.13-.38,0-.47,.25-.88,.51-1.31,.3-.5,.62-1.02,.62-1.7,0-.51-.49-1.07-1.19-1.07-.61,0-1.23,.44-1.73,1.25-.31,.5-.48,.83-.59,1.08-.3,.6-.36,.74-1.87,1.81-.57,.4-1.1,.91-1.41,1.35-.42,.58-.59,1.19-.75,2.06-.14,.75-.17,1.21-.19,1.58-.05,.73-.07,1.1-.88,2.81-.17,.36-.5,1-.74,1.38,.26-2.23,1.27-5.66,2.14-7.9,1.2-3.07,2.94-6.12,5.33-9.31l1.41-1.69c.47-.63,2-2.27,2.51-2.71l2.18-1.97c1.5-1.24,3.12-2.51,4.84-3.43,.29-.16,.58-.32,.87-.48,.58-.33,1.18-.67,1.82-.95,1.85-.81,3.87-1.64,6.05-2.15l.37-.09c.99-.23,2.02-.48,3.04-.57,.38-.04,.74-.08,1.11-.12,.82-.1,1.67-.2,2.63-.2,4.24,0,6.45,.04,10.44,1,2.19,.52,4.18,1.35,6.04,2.16,1.03,.45,2.18,1.07,3.31,1.79,1.03,.66,2.09,1.34,3.08,2.13,.1,.08,.18,.15,.27,.22,.09,.08,.18,.15,.28,.23,1.33,1.05,2.6,2.21,3.77,3.45l.48,.51,3.31,4.04c3.04,4.03,5.36,9.37,6.35,14.65l.27,1.55c-.56-.39-.99-1.01-1.3-1.88h0Z"/><path class="cls-1" d="M18.48,44.7s-.01,.04-.02,.07h.03s0-.03-.01-.07h0Z"/><path class="cls-1" d="M18.42,44.31c-.24,.15-.26,.33-.23,.45,0-.12-.01-.3,.23-.45h0Z"/><path class="cls-1" d="M46.61,35.91h0s-.03-.02-.05-.03c.02,0,.03,.02,.05,.03h0Z"/><path class="cls-1" d="M46.28,34.37v-.03h0v.03h0Z"/><path class="cls-1" d="M18.19,44.76c-.01,.18,.14,.3,.26,.3-.09-.01-.22-.14-.26-.3h0Z"/><path class="cls-1" d="M18.49,44.77h0c.07,0,.17,.01,.29,.01-.07,0-.13,0-.19,0-.04,0-.07,0-.1,0h0Z"/><path class="cls-1" d="M18.58,44.55c-.12,.07-.11,.12-.1,.14h0c.02-.06,.03-.1,.1-.14h0Z"/><path class="cls-1" d="M46.28,34.37v-.03c-.04,.22-.07,.44-.11,.66v.04c.05,.26,.12,.6,.15,.93v.08l.26,.09v-.15s.02-.06,.03-.09c-.02,0-.03-.02-.05-.03-.05-.5-.17-1.01-.28-1.51h0Z"/><path class="cls-1" d="M41.48,18.28c.22,.07,.44,.21,.63,.41-.19-.2-.4-.34-.63-.41h0Z"/><path class="cls-1" d="M37.6,23.1c-.08,.02-.16,.05-.22,.09,.04,.01,.08,.03,.11,.06h.01c.05,.09,.12,.12,.21,.11,.07-.01,.1-.08,.13-.18v-.03s.05-.05,.08-.06c-.11-.01-.25,0-.32,.02h0Z"/><path class="cls-1" d="M48.8,46.57v-.03c-.1-.55-.34-.97-.75-1.3-.13-.1-.26-.2-.38-.29-.57-.42-1.07-.79-1.22-1.49-.06-.28-.11-1.8-.16-3.33v-.02c-.01-.48-.03-.87-.04-1.12v-.06l.05-.02c.17-.07,.31-.18,.41-.33,.25-.38,.29-1.65,.01-2.16-.09-.17-.22-.28-.38-.31h-.06v-.07c-.04-.53-.17-1.08-.29-1.61-.14-.6-.28-1.22-.3-1.81v-.1c-.03-.76-.09-2.52-.66-3.46-.23-.38-.71-.78-1.18-1.16-.26-.21-.52-.42-.71-.62l-.04-.04,.03-.05s.03-.08,.03-.12c-.03-.36-.29-1.44-1.06-1.69l-.05-.02v-.05c-.01-.12-.02-.24-.03-.35v-.09h.08c.07,0,.14,0,.2,0,.06-.01,.11-.05,.14-.11,.03-.06,.03-.12,0-.18-.17-.33-.08-.65,.09-1.16,.02-.07,.05-.14,.07-.22,.02-.07,.05-.14,.07-.22,.16-.48,.33-.97,.2-1.49l-.03-.1h.11c.06,0,.13,.01,.19,.02,.03,0,.07,0,.1,.01,.12,.01,.22-.08,.22-.2,0-.57-.67-1.19-1.15-1.38l-.05-.02v-.05c0-.27-.1-.54-.27-.77-.2-.27-.48-.45-.73-.48-.07,0-.13,.02-.17,.07-.04,.04-.06,.1-.05,.16,0,.06,0,.12,0,.18v.11l-.11-.05c-.67-.31-1.4-.36-2.18-.15-.6,.16-1.01,.41-1.34,.61-.33,.2-.57,.34-.87,.34-.09,0-.18-.01-.28-.04-.08-.02-.16,0-.21,.08-.04,.05-.05,.12-.03,.18,.06,.18,.13,.37,.24,.54l.07,.11h-.13c-.11,.02-.23,.02-.34,.01-.06,0-.12,0-.19,0-.08,0-.14,.04-.18,.1-.04,.06-.04,.13,0,.2,.22,.42,.58,.71,1.05,.87h0v.08c-.05,.26-.01,.53,.02,.77v.03h-.04s-.01,0-.02,0h-.02s-.05,.02-.07,.04c-.02,.03-.03,.07-.02,.12,.04,.28,.11,.64,.16,.78,.01,.03,.04,.06,.08,.08h.02v.02s-.02,.06-.03,.1v.02c-.12,.42-.17,.62-.05,.74,.13,.14,.29,.18,.5,.15h.03v.02c-.04,.22-.04,.43,.21,.47h.02v.02c0,.19,.07,.43,.32,.47h.01v.02c.01,.6,.3,.94,.8,.94,.1,0,.2-.01,.31-.04,.14-.03,.4-.17,.66-.35l.07-.05,.02,.05c.04,.12,.13,.41,.15,.57v.06l-.04,.03s-.56,.52-.78,.77c-.37,.43-.66,.8-.89,1.22-.39,.73-.54,1.34-.71,2.04-.04,.18-.09,.36-.13,.54-.2,.76-.4,1.32-.67,1.89-.02,.04-.05,.11-.1,.19-.16,.32-.43,.86-.55,1.18l-.03,.07-.07-.03c-.65-.26-2.57-1.11-3.29-1.43l-.1-.05,.08-.08c.37-.39,.8-.86,1.17-1.27l.03-.03c.17-.19,.31-.34,.36-.39,.04-.04,.06-.1,.06-.16,0-.06-.04-.11-.08-.15l-.76-.53c-.97-.67-2.98-2.07-3.13-2.18-.06-.04-.07-.05-.11-.05h-.02l.06-.05h-.16c-.59,.05-1.1,.18-1.5,.39h0s-.02,0-.03-.01c-.09-.04-1.53-.83-2.2-1.23-.06-.04-.11-.07-.19-.11l-.13-.07,.03,.09h0s-.03,0-.04,0h-.02c-.11,0-.19,.1-.19,.21,.02,.35,.43,3.34,.55,3.81,.05,.2,.18,.36,.36,.42h.01c.15,.1,1.01,.59,1.84,1.07l.13,.08-.14,.06c-.37,.16-.66,.42-.69,.45-.47,.43-5.41,7.15-5.8,7.76-.05,.08-.04,.18,.02,.24,.03,.03,.08,.08,.14,.13l.09,.08-.1,.05c-.84,.43-3.2,1.72-3.72,2.05-.33,.21-.48,.54-.4,.88,.07,.32,.33,.58,.61,.61,.38,.04,1.23,0,2.48-.12l.9-.1c1.1-.12,2.03-.25,2.23-.29,.26-.05,.69-.24,.63-.97-.01-.13-.04-.4-.08-.61v-.04l1.29-1.34c.98-1,2.75-2.85,3.58-3.95l.04-.06,.06,.04c.41,.27,1.16,.75,1.9,1.22l.75,.48-.18,.04c-.95,.22-1.64,.44-1.87,.52-1.09,.39-2.42,.88-2.95,1.21-.07,.04-.13,.09-.2,.15-.36,.28-.48,.78-.48,.78-.27,.99,.19,2.3,.56,3.2,.19,.46,.38,.93,.55,1.39l.05,.14c.55,1.39,1.08,2.75,1.64,4.12,.23,.55,.91,2.21,1.16,2.44,.02,.02,.04,.03,.06,.04l.07,.03-.03,.07c-.55,1.4-1.22,3.18-1.35,3.74-.09,.38,.04,.72,.33,.91,.27,.17,.65,.17,.86,0,.73-.59,3.03-3.39,3.65-4.21l.22-.41s0-.1,0-.2c0-.06,0-.11,0-.13l-.22-.39c-.05-.05-.09-.09-.14-.13-.13-.11-.37-.31-.53-.41l-.08-.04,.03-.07v-.02s.04-.09,.03-.13c-.06-.28-.13-.57-.19-.85v-.06c-.22-.89-.6-2.52-.85-3.37-.2-.68-.65-1.86-1.01-2.82l-.03-.08,.09-.02c.36-.09,1.13-.24,2.02-.42l.96-.19c1.8-.36,3.77-.77,4.66-1.09,.17-.06,.35-.15,.53-.27l.19-.14c.38-.3,.72-.71,1-1.21l.24-.5c.12-.28,.22-.58,.3-.9v-.06h.08c.77,0,1.38-.83,1.82-1.43l.1-.13,.06,.05c.07,.06,.16,.1,.28,.13,.03,0,.06,0,.08,0h.07l.02,.07c.07,.53,.24,1.45,.38,2.26v.02c.12,.61,.23,1.25,.26,1.51l.11,.84c.07,.52,.2,1.25,.42,1.67,.13,.24,.92,1.33,1.48,1.33,.04,0,.08,0,.12-.02,.08-.03,.14-.08,.17-.16,.05-.13,.02-.29-.13-.59l-.14-.29,.26,.2c.27,.2,.51,.4,.67,.54,.11,.1,.24,.26,.36,.41,.26,.31,.46,.56,.68,.56,.09,0,.18-.04,.24-.12,.02-.05,.13-.31,.1-.66v-.02h0Zm-6.71-20.31c0-.09,0-.19,0-.32v-.18l.13,.11c.39,.33,.52,1.02,.53,1.09v.04l-.02,.03c-.59,.66-1.2,1.18-1.87,1.58l-.08,.05-.04-.08c-.12-.28-.3-.56-.47-.75l-.05-.05,.05-.05c.48-.55,1.05-1.02,1.7-1.29,.06-.03,.1-.09,.1-.16h0Zm-5.85-5.12c.19-.02,.4-.07,.59-.2,.16-.11,.16-.36,0-.46-.07-.05-.13-.13-.19-.22,.38-.03,.69-.21,1.01-.41,.32-.19,.69-.41,1.22-.56,.79-.21,1.48-.12,2.13,.27,.15,.09,.34,.02,.4-.14,.03-.07,.06-.16,.09-.28,.21,.19,.34,.48,.28,.77-.03,.16,.09,.32,.26,.33,.2,.01,.63,.35,.84,.66-.14,0-.3,.03-.43,.1-.12,.07-.17,.23-.11,.36,.22,.46,.07,.92-.11,1.45-.05,.15-.09,.29-.14,.44-.12,.36-.24,.72-.19,1.1-.43-.1-1.1-.38-1.3-.61h0c.15-.24,.24-.51,.24-.74,0-.44-.21-.72-.57-.77-.14-.02-.28,0-.41,.07l-.21,.02c-.03-.08-.06-.16-.09-.22-.02-.05-.04-.09-.05-.11-.09-.26-.14-.64-.13-.99,.01-.26-.32-.39-.49-.19-.33,.38-.96,.66-1.49,.66-.49,0-.88-.11-1.16-.34h0Zm.62,1.53h-.02v-.02c-.03-.2-.07-.45-.04-.68v-.08h.03c.19,.04,.37,.06,.57,.06,.46,0,.98-.16,1.4-.44l.11-.07v.13c.04,.22,.09,.42,.14,.59,.02,.05,.04,.1,.06,.15l.04,.1-.25,.03c-.7,.07-1.66,.18-2.04,.24h0Zm1.47,.13c.02,.35-.07,.78-.17,.83-.12,.06-.31,.07-.56,.08h-.18c-.21,.01-.39-.28-.48-.75v-.02h.02c.24-.04,.67-.09,1.35-.16h.02v.02h0Zm.37,3.53c-.23,.05-.4,.03-.51-.05-.16-.13-.17-.4-.18-.55,0-.18-.2-.22-.28-.23-.02,0-.08-.03-.1-.05-.03-.04-.04-.11-.03-.19h0v-.02c.25-.07,.48-.21,.48-.21,.06-.04,.08-.13,.05-.19-.04-.06-.13-.08-.19-.04-.26,.16-.49,.21-.57,.21h-.02v-.02s.02-.18,.03-.31l.02-.16h-.18c-.06,.02-.11,.02-.16,.02-.09,0-.18,0-.27-.08v-.02c-.01-.07,.03-.25,.09-.48,.02-.07,.04-.14,.05-.19v-.04l.04,.03c.13,.16,.28,.24,.45,.24h.18c.28-.03,.5-.04,.67-.12,.3-.14,.34-.79,.33-1.11v-.02l.64-.07h0c.06,.2,.08,.35,.07,.48,0,.11,.07,.21,.18,.22,.11,0,.21-.07,.22-.18,0-.01,0-.04,0-.07,0-.04,.01-.09,.01-.1,0-.15,.06-.28,.16-.36,.09-.08,.21-.11,.32-.09,.13,.02,.3,.09,.3,.46,0,.28-.23,.75-.56,.96-.05,.04-.06,.09-.05,.13,.01,.04,.05,.09,.11,.09,.05,0,.08-.03,.13-.07l.08-.06,.05,.05c.24,.23,.77,.5,1.29,.65l.05,.02v.06c0,.16,.02,.34,.04,.53,.02,.26,.04,.51,.04,.71v.05l-.04,.02c-.55,.31-1.05,.69-1.49,1.12l-.12,.12v-.17c-.05-.45-.17-.9-.27-1.15h.02l.04-.05c.15-.14,.27-.27,.33-.39,.02-.04,.03-.09,.01-.13-.01-.04-.04-.08-.09-.11-.08-.05-.2-.01-.24,.07-.18,.32-.96,.82-1.15,.86h0Zm-2.34,7.99l.04-.08c.1-.24,.21-.45,.31-.67,.25-.52,.51-1.05,.67-1.82l.03-.17c.2-.94,.34-1.62,.8-2.47,.13-.24,.29-.46,.48-.71l.03-.03c.17-.2,.55-.55,.85-.67l.26-.11-.28,.38c-.17,.22-.96,1.79-1.19,3-.07,.38-.14,.79-.21,1.18v.05c-.13,.72-.24,1.39-.36,1.76-.09,.28-.21,.54-.33,.82-.15,.34-.3,.69-.4,1.06,0,0-.2,.7-.04,1.35l.04,.15-.14-.06c-.31-.13-.7-.37-.76-.5-.45-.9-.12-1.69,.2-2.45h0Zm-4.03-.5c1.24,.55,2.77,1.23,3.31,1.44l.06,.02v.06c-.07,.29-.07,.64-.02,.95l.03,.17-.15-.09c-1.02-.61-3.04-1.86-3.8-2.34l-.09-.06,.08-.07c.07-.06,.14-.13,.22-.2l.04-.04,.33,.15h0Zm-5.65-5.46l-.03-.06,.47,.26c.43,.24,.68,.38,.84,.46l.03,.02-.03,.02c-.37,.25-.67,.58-.92,1.01l-.04,.07v-.08c.02-.68-.09-1.25-.33-1.7h0Zm-.25,3.04c-.11-.49-.41-2.64-.5-3.41v-.12l.09,.09c.99,.87,.68,2.68,.56,3.21-.01,.05-.02,.09-.04,.13l-.07,.28-.04-.19h0Zm.33,.2l.04-.16c.02-.07,.04-.14,.05-.22,.3-.99,.86-2.15,2.57-2.41l.15-.02-.09,.1c-.55,.58-2.1,2.19-2.62,2.62l-.11,.09h0Zm.37,.34l-.1-.06,.09-.07c.61-.52,2.26-2.24,2.75-2.75l.05-.05,.06,.04c.49,.35,1.78,1.24,2.94,2.05l.57,.4-.24,.26c-.86,.94-1.77,1.93-2.05,2.09-.11,.06-.21,.09-.32,.09-.19,0-.39-.08-.64-.22-.34-.18-2.27-1.3-3.1-1.78h0Zm-3.19,12.62c-.59,.11-3.91,.52-5.18,.52-.13,0-.24-.01-.32-.01-.12,0-.28-.13-.26-.3,0-.12-.01-.3,.23-.45,.6-.38,3.53-1.97,3.92-2.15l.04-.02,.04,.03c.49,.37,1.19,.84,1.7,1.05l.04,.02v.04c.04,.19,.09,.57,.1,.73,.04,.43-.13,.51-.31,.55h0Zm7.71-5.65l-.1-.07c-.65-.41-1.38-.88-1.78-1.15l-.06-.04,.04-.07c.06-.1,.1-.18,.12-.24,.04-.1-.02-.22-.12-.25-.1-.03-.22,.02-.25,.12-.26,.76-4.18,4.79-5.08,5.65l-.04,.03-.05-.02c-.55-.2-1.61-.94-2.1-1.35l-.05-.05,.04-.06c.82-1.18,5.24-7.15,5.61-7.49,.18-.17,.62-.48,1.01-.48,.05,0,.09,0,.14,.01h.02c.56,.33,.91,.53,1.04,.6,.3,.16,.56,.27,.83,.27,.14,0,.27-.03,.41-.09l.04-.02,.04,.02c.66,.43,4.79,3.07,5.05,3.21l.12,.06-.11,.08c-.69,.49-1.47,1.37-1.68,1.65l-.02,.03h-.03c-.61,.08-1.25,.19-1.9,.32h-.06c-.19-.14-.6-.4-1.06-.7h0Zm1.45,13.94l.05,.06s.03,.03,.04,.04c.11,.07,.28,.21,.49,.39,.33,.28,.27,.46,.17,.6-.3,.43-2.94,3.68-3.67,4.26-.04,.03-.11,.04-.15,.04-.05,0-.15,0-.25-.07-.11-.07-.22-.2-.16-.48,.06-.24,.31-1.05,1.35-3.73l.08-.22h.05c.61-.11,1.45-.41,1.94-.84l.06-.05h0Zm7.81-12.49c-.36,1.36-1.13,2.41-2.01,2.72-1.04,.37-3.64,.88-5.55,1.26-1.11,.22-1.8,.36-2.12,.44l-.07,.02-.09-.23c-.04-.1-.07-.19-.08-.21-.03-.1-.14-.16-.25-.13-.1,.03-.16,.14-.13,.25,.01,.04,.06,.17,.14,.37l.11,.28c.31,.8,.88,2.29,1.11,3.06,.29,.98,.79,3.14,1.02,4.15v.06c-.31,.46-1.49,.92-2.22,.97h-.05l-.03-.04c-.16-.25-.47-.94-.94-2.06v-.03s0-.02-.02-.02v-.02c-.37-.8-1.12-2.71-1.67-4.15l-.02-.04c-.25-.65-.45-1.16-.54-1.37-.55-1.32-1.17-3.15-.11-3.81,.57-.35,2.25-.95,2.88-1.17,.53-.19,3.04-.92,5.65-1.1,.11,0,.19-.1,.18-.21,0-.11-.09-.19-.2-.19h0c-.14,.01-.29,.02-.44,.03l-.2,.02,.13-.15c.44-.49,1.11-1.13,1.55-1.33h.06c.19,.07,.4,.15,.63,.24,.31,.11,.63,.23,.87,.34h0l-.02,.08c-.17,.65-.21,1.9,.72,2.42h.02v.03c-.24,.29-.49,.53-.74,.68-.08,.05-.1,.16-.05,.25,.03,.05,.09,.08,.15,.08,.03,0,.07,0,.09-.03,.55-.35,1.24-1.18,1.45-1.96l.03-.1,.05,.05c.24,.23,.44,.38,.64,.47l.06,.03-.02,.06h0Zm-1.05-.85c-.02,.27-.16,.62-.39,.98v.02h-.03c-.83-.44-.68-1.6-.61-1.95l.02-.09,.05,.03c.31,.21,.61,.53,.89,.83l.08,.09v.09h0Zm2.66-5.84c.12,.4,.23,.81,.27,1.13,.06,.45,.13,1.08,.29,1.6l.02,.06-.05,.03c-.08,.05-.13,.11-.16,.16-.23,.37-.03,.72,.11,.96,.04,.08,.08,.14,.1,.19,.04,.1,.04,.25,.04,.39,0,.05,0,.11,0,.17v.03l-.02,.02c-.08,.09-.16,.2-.27,.35l-.03,.05c-.33,.45-.88,1.19-1.46,1.19-.43,0-.85-.45-1.29-.93-.35-.37-.71-.76-1.13-1-.28-.15-.71-.31-1.17-.48l-.14-.05h-.01c-.36-.42-.31-1.19-.19-1.61,.1-.34,.24-.67,.38-1,.12-.28,.24-.56,.34-.86,.13-.39,.24-1.08,.37-1.81v-.02c.07-.4,.14-.82,.22-1.21,.23-1.17,1-2.68,1.12-2.83l.1-.13,.06,.08c.15,.19,.35,.51,.45,.86,.03,.12,.17,.18,.28,.12,.73-.38,1.38-.89,2.01-1.54l.05-.06,.06,.06c.21,.2,.46,.41,.71,.62,.44,.36,.9,.74,1.1,1.06,.52,.85,.57,2.61,.59,3.27v.1c.03,.63,.17,1.27,.32,1.89,.13,.56,.26,1.13,.28,1.66v.05l-.04,.02c-.19,.12-.46,.3-1.25,.34h0c-.16,0-.32-.04-.47-.07h-.05c-.19-.06-.36-.1-.52-.11h-.05l-.02-.06c-.16-.5-.23-1.13-.29-1.59-.04-.35-.17-.78-.28-1.19-.11-.4-.23-.81-.28-1.14-.01-.11-.11-.19-.22-.17-.11,.01-.18,.11-.17,.22,.03,.29,.11,.58,.29,1.19h0Zm1.53,4.92c-.11,.02-.21,.04-.28,.04-.02,0-.05,0-.06,0-.15-.03-.17-.12-.17-.45,0-.16,0-.35-.07-.51-.03-.09-.08-.18-.13-.25-.14-.24-.21-.39-.11-.55,.03-.05,.1-.07,.2-.07,.15,0,.36,.05,.55,.09,.2,.05,.44,.11,.63,.1,.9-.04,1.24-.27,1.44-.4h.01s.06-.05,.09-.06h.01v-.07l.11,.05c.06,.03,.12,.14,.16,.3,.14,.52,.05,1.37-.07,1.56-.1,.16-.25,.22-.5,.22-.14,0-.28-.02-.41-.03h-.03c-.16-.02-.32-.04-.48-.05h-.05c-.38,0-.65,.05-.84,.09h0Zm4.21,8.17c-.06-.07-.13-.15-.18-.21-.13-.16-.27-.33-.4-.45-.38-.35-1.39-1.1-1.59-1.14-.11-.02-.22,.05-.24,.16-.03,.16,.07,.36,.27,.72l.28,.53-.32-.29c-.25-.22-.58-.59-.74-.88-.25-.46-.37-1.47-.46-2.14l-.03-.23c-.03-.27-.14-.85-.26-1.53-.15-.81-.32-1.73-.38-2.26v-.07h.06c.22-.05,.43-.07,.65-.07h.03c.14,0,.28,.02,.43,.04,.16,.02,.28,.03,.4,.04h.07v.08c.01,.25,.03,.64,.04,1.07,.05,1.68,.1,3.1,.17,3.42,.18,.85,.79,1.3,1.37,1.73h.01c.12,.1,.24,.19,.36,.28,.34,.28,.53,.59,.61,1.06,0,.03,0,.05,0,.07v.25l-.14-.17h0Z"/></svg>