<?xml version="1.0" encoding="UTF-8"?>
<!DOCTYPE svg PUBLIC "-//W3C//DTD SVG 1.1//EN" "http://www.w3.org/Graphics/SVG/1.1/DTD/svg11.dtd">
<svg xmlns="http://www.w3.org/2000/svg" version="1.1" width="512px" height="512px" style="shape-rendering:geometricPrecision; text-rendering:geometricPrecision; image-rendering:optimizeQuality; fill-rule:evenodd; clip-rule:evenodd" xmlns:xlink="http://www.w3.org/1999/xlink">
<g><path style="opacity:0.983" fill="#0fe4fe" d="M 81.5,-0.5 C 82.8333,-0.5 84.1667,-0.5 85.5,-0.5C 85.5,13.1667 85.5,26.8333 85.5,40.5C 73.8721,44.1286 64.8721,51.1286 58.5,61.5C 58.8193,43.4234 58.486,25.4234 57.5,7.5C 65.2773,3.89568 73.2773,1.22901 81.5,-0.5 Z"/></g>
<g><path style="opacity:0.999" fill="#15defe" d="M 85.5,-0.5 C 93.5,-0.5 101.5,-0.5 109.5,-0.5C 109.5,12.8333 109.5,26.1667 109.5,39.5C 101.483,39.5012 93.4827,39.8345 85.5,40.5C 85.5,26.8333 85.5,13.1667 85.5,-0.5 Z"/></g>
<g><path style="opacity:1" fill="#1cd8fe" d="M 109.5,-0.5 C 118.833,-0.5 128.167,-0.5 137.5,-0.5C 137.5,12.8333 137.5,26.1667 137.5,39.5C 128.167,39.5 118.833,39.5 109.5,39.5C 109.5,26.1667 109.5,12.8333 109.5,-0.5 Z"/></g>
<g><path style="opacity:1" fill="#22d3fe" d="M 137.5,-0.5 C 146.167,-0.5 154.833,-0.5 163.5,-0.5C 163.5,12.8333 163.5,26.1667 163.5,39.5C 154.833,39.5 146.167,39.5 137.5,39.5C 137.5,26.1667 137.5,12.8333 137.5,-0.5 Z"/></g>
<g><path style="opacity:1" fill="#28cdfe" d="M 163.5,-0.5 C 173.833,-0.5 184.167,-0.5 194.5,-0.5C 194.5,12.8333 194.5,26.1667 194.5,39.5C 184.167,39.5 173.833,39.5 163.5,39.5C 163.5,26.1667 163.5,12.8333 163.5,-0.5 Z"/></g>
<g><path style="opacity:1" fill="#2ec8fe" d="M 194.5,-0.5 C 205.167,-0.5 215.833,-0.5 226.5,-0.5C 226.5,12.8333 226.5,26.1667 226.5,39.5C 215.833,39.5 205.167,39.5 194.5,39.5C 194.5,26.1667 194.5,12.8333 194.5,-0.5 Z"/></g>
<g><path style="opacity:1" fill="#34c3fe" d="M 226.5,-0.5 C 235.833,-0.5 245.167,-0.5 254.5,-0.5C 254.5,12.8333 254.5,26.1667 254.5,39.5C 245.167,39.5 235.833,39.5 226.5,39.5C 226.5,26.1667 226.5,12.8333 226.5,-0.5 Z"/></g>
<g><path style="opacity:0.988" fill="#3bbdfe" d="M 254.5,-0.5 C 261.833,-0.5 269.167,-0.5 276.5,-0.5C 285.746,4.74016 294.746,10.4068 303.5,16.5C 302.504,31.9911 302.17,47.6578 302.5,63.5C 289.722,55.9393 277.055,48.106 264.5,40C 261.183,39.5017 257.85,39.335 254.5,39.5C 254.5,26.1667 254.5,12.8333 254.5,-0.5 Z"/></g>
<g><path style="opacity:0.978" fill="#08e9fd" d="M 57.5,7.5 C 58.486,25.4234 58.8193,43.4234 58.5,61.5C 57.0338,65.7351 55.8671,70.0684 55,74.5C 54.3333,181.833 54.3333,289.167 55,396.5C 56.4269,403.339 58.9269,409.672 62.5,415.5C 61.5036,431.658 61.1702,447.991 61.5,464.5C 52.6295,461.239 44.9628,456.239 38.5,449.5C 38.8329,306.999 38.4996,164.666 37.5,22.5C 43.4126,16.5385 50.0793,11.5385 57.5,7.5 Z"/></g>
<g><path style="opacity:0.989" fill="#42b7fe" d="M 303.5,16.5 C 319.012,25.0852 334.012,34.4185 348.5,44.5C 348.5,73.8333 348.5,103.167 348.5,132.5C 332.664,135.674 323.497,129.34 321,113.5C 320.833,100.487 320.333,87.4872 319.5,74.5C 313.598,71.0584 307.932,67.3917 302.5,63.5C 302.17,47.6578 302.504,31.9911 303.5,16.5 Z"/></g>
<g><path style="opacity:0.998" fill="#05ecfe" d="M 37.5,22.5 C 38.4996,164.666 38.8329,306.999 38.5,449.5C 35.6082,446.729 32.9416,443.729 30.5,440.5C 30.8329,303.999 30.4996,167.666 29.5,31.5C 31.4719,27.8949 34.1385,24.8949 37.5,22.5 Z"/></g>
<g><path style="opacity:0.967" fill="#02effe" d="M 29.5,31.5 C 30.4996,167.666 30.8329,303.999 30.5,440.5C 21.2254,428.872 15.7254,415.539 14,400.5C 13.3333,290.5 13.3333,180.5 14,70.5C 15.7629,56.0248 20.9296,43.0248 29.5,31.5 Z"/></g>
<g><path style="opacity:0.984" fill="#44b4fe" d="M 348.5,44.5 C 354.513,47.0135 358.679,51.3469 361,57.5C 361.667,78.1667 361.667,98.8333 361,119.5C 358.676,125.657 354.509,129.99 348.5,132.5C 348.5,103.167 348.5,73.8333 348.5,44.5 Z"/></g>
<g><path style="opacity:0.979" fill="#23d2fe" d="M 163.5,119.5 C 163.5,132.833 163.5,146.167 163.5,159.5C 161.585,159.216 159.919,159.549 158.5,160.5C 141.57,159.394 134.403,150.394 137,133.5C 142.23,122.346 151.064,117.68 163.5,119.5 Z"/></g>
<g><path style="opacity:0.983" fill="#28cdfe" d="M 163.5,119.5 C 173.833,119.5 184.167,119.5 194.5,119.5C 194.5,132.833 194.5,146.167 194.5,159.5C 192.585,159.216 190.919,159.549 189.5,160.5C 179.167,160.5 168.833,160.5 158.5,160.5C 159.919,159.549 161.585,159.216 163.5,159.5C 163.5,146.167 163.5,132.833 163.5,119.5 Z"/></g>
<g><path style="opacity:0.974" fill="#2dc9fe" d="M 194.5,119.5 C 202.5,119.5 210.5,119.5 218.5,119.5C 218.5,133.167 218.5,146.833 218.5,160.5C 208.833,160.5 199.167,160.5 189.5,160.5C 190.919,159.549 192.585,159.216 194.5,159.5C 194.5,146.167 194.5,132.833 194.5,119.5 Z"/></g>
<g><path style="opacity:0.951" fill="#32c5fe" d="M 218.5,119.5 C 236.453,122.734 242.62,133.067 237,150.5C 232.78,157.361 226.614,160.694 218.5,160.5C 218.5,146.833 218.5,133.167 218.5,119.5 Z"/></g>
<g><path style="opacity:0.981" fill="#41b8fe" d="M 357.5,192.5 C 356.081,193.451 354.415,193.784 352.5,193.5C 352.5,206.5 352.5,219.5 352.5,232.5C 350.901,232.232 349.568,232.566 348.5,233.5C 341.716,233.08 335.05,233.58 328.5,235C 326.349,240.104 324.182,245.271 322,250.5C 317.138,255.515 311.305,258.848 304.5,260.5C 302.513,241.863 301.846,222.863 302.5,203.5C 307.435,198.53 313.435,195.364 320.5,194C 332.78,192.606 345.114,192.106 357.5,192.5 Z"/></g>
<g><path style="opacity:0.982" fill="#48b1fe" d="M 357.5,192.5 C 381.625,191.385 398.625,201.718 408.5,223.5C 408.83,239.342 408.496,255.009 407.5,270.5C 398.464,264.313 388.798,259.147 378.5,255C 377,253.5 375.5,252 374,250.5C 371.605,245.408 369.438,240.241 367.5,235C 361.285,233.584 354.952,233.084 348.5,233.5C 349.568,232.566 350.901,232.232 352.5,232.5C 352.5,219.5 352.5,206.5 352.5,193.5C 354.415,193.784 356.081,193.451 357.5,192.5 Z"/></g>
<g><path style="opacity:0.981" fill="#3cbdfe" d="M 302.5,203.5 C 301.846,222.863 302.513,241.863 304.5,260.5C 297.381,264.234 290.714,268.734 284.5,274C 277.547,277.097 270.547,277.264 263.5,274.5C 263.815,260.754 263.481,247.088 262.5,233.5C 265.187,233.664 267.854,233.497 270.5,233C 276.002,229.415 281.669,226.081 287.5,223C 290.704,215.078 295.704,208.578 302.5,203.5 Z"/></g>
<g><path style="opacity:0.983" fill="#37c0fe" d="M 252.5,234.5 C 255.625,233.521 258.958,233.187 262.5,233.5C 263.481,247.088 263.815,260.754 263.5,274.5C 258.885,274.12 255.885,276.12 254.5,280.5C 255.151,264.797 254.484,249.464 252.5,234.5 Z"/></g>
<g><path style="opacity:0.984" fill="#4dadfe" d="M 408.5,223.5 C 414.462,226.148 420.129,229.314 425.5,233C 443.723,231.181 458.89,237.014 471,250.5C 479.52,264.206 487.52,278.206 495,292.5C 497.804,301.752 498.137,311.085 496,320.5C 493.67,327.152 490.837,333.485 487.5,339.5C 488.817,348.003 488.817,356.503 487.5,365C 499.727,383.637 500.561,402.803 490,422.5C 484,432.5 478,442.5 472,452.5C 460.388,466.927 445.388,472.927 427,470.5C 421.338,474.748 415.171,478.081 408.5,480.5C 408.5,464.833 408.5,449.167 408.5,433.5C 409.343,431.827 410.676,430.66 412.5,430C 415.604,428.932 418.771,428.099 422,427.5C 426.859,428.607 431.692,429.44 436.5,430C 443.376,419.751 449.876,409.251 456,398.5C 456.667,397.167 456.667,395.833 456,394.5C 451.653,389.807 448.319,384.473 446,378.5C 446.041,369.661 446.541,360.828 447.5,352C 447.122,344.808 446.455,337.641 445.5,330.5C 445.76,322.98 448.927,316.98 455,312.5C 455.781,311.271 456.281,309.938 456.5,308.5C 450.941,297.048 444.608,286.048 437.5,275.5C 436.228,274.954 434.894,274.621 433.5,274.5C 427.95,276.292 422.283,276.792 416.5,276C 412.819,275.128 409.819,273.294 407.5,270.5C 408.496,255.009 408.83,239.342 408.5,223.5 Z"/></g>
<g><path style="opacity:0.986" fill="#34c3fe" d="M 252.5,234.5 C 254.484,249.464 255.151,264.797 254.5,280.5C 249.104,289.46 244.104,298.627 239.5,308C 239.625,309.627 240.125,311.127 241,312.5C 247.008,317.006 250.175,323.006 250.5,330.5C 249.38,337.625 248.713,344.792 248.5,352C 249.294,360.84 249.794,369.674 250,378.5C 247.874,384.295 244.54,389.295 240,393.5C 239.833,394.333 239.667,395.167 239.5,396C 244.88,408.095 251.547,419.428 259.5,430C 260.793,430.49 262.127,430.657 263.5,430.5C 263.5,444.167 263.5,457.833 263.5,471.5C 251.167,471.5 238.833,471.5 226.5,471.5C 227.164,394.493 226.497,317.826 224.5,241.5C 224.5,241.167 224.5,240.833 224.5,240.5C 231,241.383 237,240.216 242.5,237C 245.72,235.648 249.053,234.814 252.5,234.5 Z"/></g>
<g><path style="opacity:0.977" fill="#1dd8fe" d="M 139.5,240.5 C 137.546,253.921 136.879,267.588 137.5,281.5C 131.167,281.5 124.833,281.5 118.5,281.5C 117.519,268.246 117.186,254.913 117.5,241.5C 124.648,240.508 131.981,240.175 139.5,240.5 Z"/></g>
<g><path style="opacity:0.988" fill="#28cdfe" d="M 145.5,240.5 C 158.5,240.5 171.5,240.5 184.5,240.5C 187.625,241.479 190.958,241.813 194.5,241.5C 194.5,254.833 194.5,268.167 194.5,281.5C 184.167,281.5 173.833,281.5 163.5,281.5C 163.5,268.167 163.5,254.833 163.5,241.5C 157.31,241.823 151.31,241.49 145.5,240.5 Z"/></g>
<g><path style="opacity:0.976" fill="#2ec9fe" d="M 184.5,240.5 C 197.833,240.5 211.167,240.5 224.5,240.5C 224.5,240.833 224.5,241.167 224.5,241.5C 222.5,241.5 220.5,241.5 218.5,241.5C 218.5,318.167 218.5,394.833 218.5,471.5C 208.833,471.5 199.167,471.5 189.5,471.5C 190.919,470.549 192.585,470.216 194.5,470.5C 194.5,457.167 194.5,443.833 194.5,430.5C 199.844,430.666 205.177,430.499 210.5,430C 200.979,417.749 197.145,403.916 199,388.5C 199.845,382.965 201.678,377.798 204.5,373C 197.842,372.5 191.175,372.334 184.5,372.5C 187.625,371.521 190.958,371.187 194.5,371.5C 194.5,358.167 194.5,344.833 194.5,331.5C 197.85,331.665 201.183,331.498 204.5,331C 198.505,319.779 197.005,307.946 200,295.5C 201.237,290.527 203.404,286.027 206.5,282C 202.514,281.501 198.514,281.334 194.5,281.5C 194.5,268.167 194.5,254.833 194.5,241.5C 190.958,241.813 187.625,241.479 184.5,240.5 Z"/></g>
<g><path style="opacity:0.997" fill="#22d3fe" d="M 139.5,240.5 C 141.5,240.5 143.5,240.5 145.5,240.5C 151.31,241.49 157.31,241.823 163.5,241.5C 163.5,254.833 163.5,268.167 163.5,281.5C 154.833,281.5 146.167,281.5 137.5,281.5C 136.879,267.588 137.546,253.921 139.5,240.5 Z"/></g>
<g><path style="opacity:0.999" fill="#30c6fe" d="M 224.5,241.5 C 226.497,317.826 227.164,394.493 226.5,471.5C 223.833,471.5 221.167,471.5 218.5,471.5C 218.5,394.833 218.5,318.167 218.5,241.5C 220.5,241.5 222.5,241.5 224.5,241.5 Z"/></g>
<g><path style="opacity:0.942" fill="#18dcfe" d="M 117.5,241.5 C 117.186,254.913 117.519,268.246 118.5,281.5C 103.784,279.104 97.6176,270.438 100,255.5C 102.692,246.904 108.526,242.237 117.5,241.5 Z"/></g>
<g><path style="opacity:0.988" fill="#41b8fe" d="M 348.5,290.5 C 348.5,303.833 348.5,317.167 348.5,330.5C 330.816,333.876 324.316,344.21 329,361.5C 332.666,367.997 338.166,371.997 345.5,373.5C 346.209,374.404 347.209,374.737 348.5,374.5C 348.186,387.913 348.519,401.246 349.5,414.5C 330.289,414.555 314.289,407.555 301.5,393.5C 302.498,366.005 302.831,338.338 302.5,310.5C 314.951,296.595 330.284,289.928 348.5,290.5 Z"/></g>
<g><path style="opacity:0.986" fill="#47b2fe" d="M 348.5,290.5 C 375.836,291.421 395.003,304.421 406,329.5C 415.204,358.88 408.037,383.38 384.5,403C 373.925,410.136 362.258,413.969 349.5,414.5C 348.519,401.246 348.186,387.913 348.5,374.5C 347.209,374.737 346.209,374.404 345.5,373.5C 359.301,372.868 367.301,365.702 369.5,352C 367.699,339.699 360.699,332.532 348.5,330.5C 348.5,317.167 348.5,303.833 348.5,290.5 Z"/></g>
<g><path style="opacity:0.95" fill="#3dbbfe" d="M 302.5,310.5 C 302.831,338.338 302.498,366.005 301.5,393.5C 282.54,369.538 280.707,344.205 296,317.5C 297.719,314.712 299.885,312.379 302.5,310.5 Z"/></g>
<g><path style="opacity:0.976" fill="#1dd8fe" d="M 118.5,331.5 C 124.833,331.5 131.167,331.5 137.5,331.5C 136.879,345.412 137.546,359.079 139.5,372.5C 131.981,372.825 124.648,372.492 117.5,371.5C 117.186,358.087 117.519,344.754 118.5,331.5 Z"/></g>
<g><path style="opacity:0.997" fill="#22d3fe" d="M 137.5,331.5 C 146.167,331.5 154.833,331.5 163.5,331.5C 163.5,344.833 163.5,358.167 163.5,371.5C 157.31,371.177 151.31,371.51 145.5,372.5C 143.5,372.5 141.5,372.5 139.5,372.5C 137.546,359.079 136.879,345.412 137.5,331.5 Z"/></g>
<g><path style="opacity:0.988" fill="#28cdfe" d="M 163.5,331.5 C 173.833,331.5 184.167,331.5 194.5,331.5C 194.5,344.833 194.5,358.167 194.5,371.5C 190.958,371.187 187.625,371.521 184.5,372.5C 171.5,372.5 158.5,372.5 145.5,372.5C 151.31,371.51 157.31,371.177 163.5,371.5C 163.5,358.167 163.5,344.833 163.5,331.5 Z"/></g>
<g><path style="opacity:0.946" fill="#18dcfe" d="M 118.5,331.5 C 117.519,344.754 117.186,358.087 117.5,371.5C 105.578,370.241 99.5778,363.575 99.5,351.5C 100.399,339.602 106.732,332.936 118.5,331.5 Z"/></g>
<g><path style="opacity:0.983" fill="#0fe4fe" d="M 62.5,415.5 C 69.3012,422.56 77.3012,427.56 86.5,430.5C 85.5043,443.99 85.171,457.656 85.5,471.5C 77.039,470.389 69.039,468.055 61.5,464.5C 61.1702,447.991 61.5036,431.658 62.5,415.5 Z"/></g>
<g><path style="opacity:0.985" fill="#3cbdfe" d="M 302.5,442.5 C 302.5,462.167 302.5,481.833 302.5,501.5C 296.017,496.008 291.017,489.341 287.5,481.5C 281.003,478.086 274.67,474.419 268.5,470.5C 266.929,471.309 265.262,471.643 263.5,471.5C 263.5,457.833 263.5,444.167 263.5,430.5C 268.914,427.824 274.581,427.324 280.5,429C 287.698,433.694 295.032,438.194 302.5,442.5 Z"/></g>
<g><path style="opacity:0.979" fill="#15defe" d="M 86.5,430.5 C 94.1667,430.5 101.833,430.5 109.5,430.5C 109.5,443.833 109.5,457.167 109.5,470.5C 107.901,470.232 106.568,470.566 105.5,471.5C 98.8333,471.5 92.1667,471.5 85.5,471.5C 85.171,457.656 85.5043,443.99 86.5,430.5 Z"/></g>
<g><path style="opacity:0.97" fill="#1cd8fe" d="M 109.5,430.5 C 118.833,430.5 128.167,430.5 137.5,430.5C 137.5,443.833 137.5,457.167 137.5,470.5C 139.099,470.232 140.432,470.566 141.5,471.5C 129.5,471.5 117.5,471.5 105.5,471.5C 106.568,470.566 107.901,470.232 109.5,470.5C 109.5,457.167 109.5,443.833 109.5,430.5 Z"/></g>
<g><path style="opacity:0.989" fill="#22d3fe" d="M 137.5,430.5 C 142.833,430.5 148.167,430.5 153.5,430.5C 156.625,431.479 159.958,431.813 163.5,431.5C 163.5,444.833 163.5,458.167 163.5,471.5C 156.167,471.5 148.833,471.5 141.5,471.5C 140.432,470.566 139.099,470.232 137.5,470.5C 137.5,457.167 137.5,443.833 137.5,430.5 Z"/></g>
<g><path style="opacity:0.966" fill="#28cdfe" d="M 153.5,430.5 C 167.167,430.5 180.833,430.5 194.5,430.5C 194.5,443.833 194.5,457.167 194.5,470.5C 192.585,470.216 190.919,470.549 189.5,471.5C 180.833,471.5 172.167,471.5 163.5,471.5C 163.5,458.167 163.5,444.833 163.5,431.5C 159.958,431.813 156.625,431.479 153.5,430.5 Z"/></g>
<g><path style="opacity:0.987" fill="#47b2fe" d="M 408.5,433.5 C 408.5,449.167 408.5,464.833 408.5,480.5C 402.086,496.922 390.419,507.255 373.5,511.5C 365.167,511.5 356.833,511.5 348.5,511.5C 348.5,498.167 348.5,484.833 348.5,471.5C 354.593,471.861 360.593,471.361 366.5,470C 369.453,466.397 371.287,462.23 372,457.5C 373.377,455.246 374.877,453.08 376.5,451C 387.67,445.918 398.336,440.085 408.5,433.5 Z"/></g>
<g><path style="opacity:0.989" fill="#41b8fe" d="M 302.5,442.5 C 310.54,444.936 317.373,449.27 323,455.5C 324.64,459.392 325.973,463.392 327,467.5C 327.833,468.333 328.667,469.167 329.5,470C 335.742,471.37 342.075,471.87 348.5,471.5C 348.5,484.833 348.5,498.167 348.5,511.5C 339.833,511.5 331.167,511.5 322.5,511.5C 315.073,509.787 308.406,506.453 302.5,501.5C 302.5,481.833 302.5,462.167 302.5,442.5 Z"/></g>
</svg>
